<?xml version="1.0" standalone="no"?>
<!DOCTYPE svg PUBLIC "-//W3C//DTD SVG 1.1//EN" "http://www.w3.org/Graphics/SVG/1.1/DTD/svg11.dtd" >
<svg xmlns="http://www.w3.org/2000/svg">
<metadata>Generated by IcoMoon</metadata>
<defs>
<font id="icomoon" horiz-adv-x="1024">
<font-face units-per-em="1024" ascent="960" descent="-64" />
<missing-glyph horiz-adv-x="1024" />
<glyph unicode="&#x20;" horiz-adv-x="512" d="" />
<glyph unicode="&#xe900;" glyph-name="settings" d="M799.672 333.6c-0.039 7.218-0.521 14.282-1.418 21.215l0.090-0.855 41.656 20.256-15.704 48.304-45.512-8.12c-7.056 12.535-15.041 23.362-24.173 33.099l0.085-0.091 21.824 40.856-40.992 29.808-32.208-33.4c-11.181 5.43-24.182 9.854-37.786 12.618l-1.070 0.182-6.256 45.728h-50.832l-6.256-45.776c-14.674-2.946-27.675-7.37-39.853-13.233l0.997 0.433-32.208 33.4-40.992-29.808 21.824-40.856c-9.046-9.634-17.029-20.444-23.653-32.127l-0.435-0.833-45.512 8.12-15.688-48.304 41.6-20.232c-0.847-6.115-1.33-13.181-1.33-20.36s0.483-14.245 1.42-21.167l-0.089 0.807-41.6-20.232 15.704-48.304 45.512 8.12c7.056-12.535 15.041-23.362 24.173-33.099l-0.085 0.091-21.824-40.856 40.992-29.808 32.208 33.4c11.181-5.431 24.183-9.854 37.787-12.619l1.069-0.181 6.256-45.776h50.84l6.256 45.776c14.674 2.946 27.675 7.37 39.853 13.233l-0.997-0.433 32.208-33.4 40.992 29.808-21.848 40.856c9.047 9.646 17.032 20.473 23.653 32.172l0.435 0.836 45.512-8.12 15.704 48.304-41.656 20.232c0.806 6.070 1.287 13.126 1.328 20.286v0.050zM632.8 250.528c-0.002 0-0.005 0-0.008 0-45.893 0-83.096 37.203-83.096 83.096s37.203 83.096 83.096 83.096c45.893 0 83.096-37.203 83.096-83.096 0-0.008 0-0.017 0-0.025v0.001c0-0.002 0-0.005 0-0.008 0-45.875-37.189-83.064-83.064-83.064-0.008 0-0.017 0-0.025 0h0.001zM490.032 600.512c-0.033 5.905-0.427 11.684-1.162 17.356l0.074-0.7 34.080 16.552-12.848 39.52-37.232-6.64c-5.774 10.253-12.308 19.109-19.781 27.074l0.069-0.074 17.856 33.424-33.536 24.384-26.352-27.328c-9.149 4.435-19.787 8.046-30.918 10.3l-0.874 0.148-5.12 37.448h-41.6l-5.12-37.448c-12.005-2.402-22.644-6.013-32.609-10.802l0.817 0.354-26.344 27.328-33.536-24.384 17.888-33.424c-7.401-7.891-13.932-16.746-19.348-26.317l-0.356-0.683-37.232 6.64-12.848-39.52 34.080-16.552c-0.693-5.003-1.088-10.783-1.088-16.656s0.396-11.653 1.161-17.316l-0.073 0.66-34.080-16.552 12.848-39.52 37.232 6.64c5.772-10.254 12.303-19.11 19.773-27.075l-0.069 0.075-17.856-33.424 33.536-24.4 26.344 27.328c9.149-4.438 19.787-8.052 30.918-10.308l0.874-0.148 5.12-37.448h41.6l5.12 37.448c11.995 2.412 22.621 6.031 32.575 10.826l-0.815-0.354 26.36-27.344 33.536 24.384-17.856 33.424c7.4 7.888 13.932 16.742 19.348 26.309l0.356 0.683 37.232-6.64 12.848 39.52-34.080 16.552c0.662 4.98 1.056 10.767 1.088 16.641v0.039zM353.512 533.24c-37.146 0.009-67.256 30.124-67.256 67.272 0 37.153 30.119 67.272 67.272 67.272s67.272-30.119 67.272-67.272v0c0-0.007 0-0.016 0-0.024 0-37.14-30.108-67.248-67.248-67.248-0.014 0-0.028 0-0.042 0h0.002z" />
<glyph unicode="&#xe930;" glyph-name="Jigsaw" d="M200.904 690.4c0 17.006 13.786 30.792 30.792 30.792v0h210.896v-108.8h-13.312c-5.029 12.006-16.683 20.286-30.271 20.286-18.075 0-32.728-14.653-32.728-32.728 0-3.006 0.405-5.918 1.164-8.683l-0.054 0.23c2.897-10.862 11.025-19.338 21.451-22.673l0.229-0.063c2.951-0.965 6.346-1.521 9.871-1.521 13.617 0 25.296 8.298 30.256 20.113l0.080 0.216h13.312v-108.32h-108.544v13.76c12.024 5.019 20.32 16.68 20.32 30.279 0 18.071-14.649 32.72-32.72 32.72s-32.72-14.649-32.72-32.72c0-13.599 8.296-25.261 20.104-30.199l0.216-0.080v-13.76h-108.344zM685.184 479.272h-108.544v13.76c12.024 5.019 20.32 16.68 20.32 30.279 0 18.071-14.649 32.72-32.72 32.72s-32.72-14.649-32.72-32.72c0-13.599 8.296-25.261 20.104-30.199l0.216-0.080v-13.76h-109.248v108.32h-13.312c-5.044-12.023-16.719-20.315-30.331-20.315-3.528 0-6.925 0.557-10.109 1.587l0.232-0.065c-10.655 3.398-18.783 11.874-21.628 22.51l-0.052 0.226c-0.705 2.536-1.111 5.447-1.111 8.454 0 18.075 14.653 32.728 32.728 32.728 13.588 0 25.241-8.28 30.19-20.070l0.080-0.216h13.312v108.8h211.808c17.003-0.005 30.784-13.789 30.784-30.792 0-0.014 0-0.028 0-0.042v0.002zM779.728 173.6c0-17.006-13.786-30.792-30.792-30.792v0h-211.8v109h13.312c5.041-12.031 16.72-20.329 30.337-20.329 3.525 0 6.921 0.556 10.104 1.586l-0.232-0.065c10.656 3.397 18.784 11.874 21.629 22.51l0.051 0.226c0.705 2.536 1.111 5.447 1.111 8.454 0 18.075-14.653 32.728-32.728 32.728-13.588 0-25.241-8.28-30.19-20.070l-0.080-0.216h-13.312v108.096h109.216v13.768c-12.032 5.015-20.336 16.681-20.336 30.286 0 14.686 9.676 27.112 23 31.252l0.232 0.062c2.828 0.876 6.080 1.381 9.449 1.381 18.14 0 32.864-14.63 33.015-32.735v-0.014c-0.008-13.645-8.408-25.326-20.318-30.162l-0.218-0.078v-13.768h108.552zM200 479.272h109.224v13.76c-12.032 5.015-20.336 16.681-20.336 30.286 0 14.686 9.676 27.112 23 31.252l0.232 0.062c2.828 0.876 6.080 1.381 9.449 1.381 18.14 0 32.864-14.63 33.015-32.735v-0.014c-0.008-13.645-8.408-25.326-20.318-30.162l-0.218-0.078v-13.76h108.544v-108.064h13.312c5.029 12.006 16.683 20.286 30.271 20.286 18.075 0 32.728-14.653 32.728-32.728 0-3.006-0.405-5.918-1.164-8.683l0.054 0.23c-2.896-10.862-11.024-19.339-21.451-22.673l-0.229-0.063c-2.951-0.965-6.346-1.521-9.871-1.521-13.617 0-25.296 8.298-30.256 20.113l-0.080 0.216h-13.312v-109.016h-109.224v14.4c11.921 5.090 20.124 16.713 20.124 30.252 0 18.115-14.685 32.8-32.8 32.8-2.802 0-5.523-0.351-8.119-1.013l0.227 0.049c-11.121-2.715-19.842-10.936-23.217-21.54l-0.063-0.228c-0.978-2.97-1.542-6.388-1.542-9.938 0-13.622 8.304-25.304 20.126-30.261l0.216-0.080v-14.4h-77.528c-16.992 0-30.769 13.763-30.792 30.75v0.002z" />
<glyph unicode="&#xe934;" glyph-name="megaphone" d="M197.992 576.984h37.6v-150.456h-37.6c-7.728 0-13.992 6.264-13.992 13.992v0 122.472c0 7.728 6.264 13.992 13.992 13.992v0zM368.464 215.904l-40.296 210.104h-82.496l43.656-227.608c3.718-18.863 20.125-32.893 39.809-32.893 2.845 0 5.622 0.293 8.302 0.851l-0.263-0.046c18.619 4.538 32.224 21.072 32.224 40.783 0 3.12-0.341 6.161-0.988 9.087l0.052-0.278zM633.952 710.4l-282.056-113.288v-190.72l282.056-113.28zM655.2 730.472c-11.731 0-21.24-9.509-21.24-21.24v0-414.952c0-11.733 9.511-21.244 21.244-21.244s21.244 9.511 21.244 21.244v414.944c0 0.002 0 0.005 0 0.008 0 11.731-9.509 21.24-21.24 21.24-0.003 0-0.006 0-0.008 0v0zM351.896 596.888h-120.336c-14.881 0-26.944-12.063-26.944-26.944v0-136.344c0-14.881 12.063-26.944 26.944-26.944h120.336zM798.472 413.272c-4.567 0.001-8.27 3.704-8.27 8.272 0 2.288 0.929 4.358 2.429 5.856v0c19.053 19.017 30.84 45.308 30.84 74.352s-11.787 55.335-30.838 74.35l-0.002 0.002c-1.546 1.507-2.505 3.61-2.505 5.937 0 4.577 3.711 8.288 8.288 8.288 2.327 0 4.43-0.959 5.935-2.503l0.002-0.002c22.046-22.018 35.683-52.45 35.683-86.068s-13.637-64.050-35.682-86.067l-0.001-0.001c-1.488-1.493-3.546-2.416-5.819-2.416-0.021 0-0.043 0-0.064 0h0.003zM750.792 431.016c-4.567 0.001-8.27 3.704-8.27 8.272 0 2.288 0.929 4.358 2.429 5.856v0c14.513 14.477 23.492 34.496 23.492 56.612s-8.979 42.135-23.49 56.61l-0.002 0.002c-1.546 1.507-2.505 3.61-2.505 5.937 0 4.577 3.711 8.288 8.288 8.288 2.327 0 4.43-0.959 5.935-2.503l0.002-0.002c17.506-17.478 28.335-41.638 28.335-68.328s-10.829-50.85-28.334-68.327l-0.001-0.001c-1.488-1.493-3.546-2.416-5.819-2.416-0.021 0-0.043 0-0.064 0h0.003zM676.44 554.272v-105.032c0.193-0.003 0.42-0.004 0.648-0.004 29.006 0 52.52 23.514 52.52 52.52s-23.514 52.52-52.52 52.52c-0.228 0-0.456-0.001-0.683-0.004h0.035z" />
<glyph unicode="&#xe936;" glyph-name="price-tags" horiz-adv-x="1280" d="M1232 960h-384c-26.4 0-63.274-15.274-81.942-33.942l-476.116-476.116c-18.668-18.668-18.668-49.214 0-67.882l412.118-412.118c18.668-18.668 49.214-18.668 67.882 0l476.118 476.118c18.666 18.666 33.94 55.54 33.94 81.94v384c0 26.4-21.6 48-48 48zM992 576c-53.020 0-96 42.98-96 96s42.98 96 96 96 96-42.98 96-96-42.98-96-96-96zM128 416l544 544h-80c-26.4 0-63.274-15.274-81.942-33.942l-476.116-476.116c-18.668-18.668-18.668-49.214 0-67.882l412.118-412.118c18.668-18.668 49.214-18.668 67.882 0l30.058 30.058-416 416z" />
<glyph unicode="&#xe93a;" glyph-name="cart" d="M384 32c0-53.019-42.981-96-96-96s-96 42.981-96 96c0 53.019 42.981 96 96 96s96-42.981 96-96zM1024 32c0-53.019-42.981-96-96-96s-96 42.981-96 96c0 53.019 42.981 96 96 96s96-42.981 96-96zM1024 448v384h-768c0 35.346-28.654 64-64 64h-192v-64h128l48.074-412.054c-29.294-23.458-48.074-59.5-48.074-99.946 0-70.696 57.308-128 128-128h768v64h-768c-35.346 0-64 28.654-64 64 0 0.218 0.014 0.436 0.016 0.656l831.984 127.344z" />
<glyph unicode="&#xe944;" glyph-name="link" d="M716.48 457.52l83.2 83.2c24.947 24.947 40.378 59.412 40.378 97.48 0 76.137-61.721 137.858-137.858 137.858-38.068 0-72.533-15.43-97.48-40.378l-83.2-83.2c-24.947-24.947-40.378-59.412-40.378-97.48 0-76.137 61.721-137.858 137.858-137.858 38.068 0 72.533 15.43 97.48 40.378v0zM653.448 691.52c13.049 12.99 31.045 21.021 50.917 21.021 39.862 0 72.176-32.314 72.176-72.176 0-19.872-8.031-37.868-21.023-50.92l-87.749-87.749c-13.049-12.99-31.045-21.021-50.917-21.021-39.862 0-72.176 32.314-72.176 72.176 0 19.872 8.031 37.868 21.023 50.92l-0.003-0.003zM419.264 160.304l83.2 83.2c24.952 24.948 40.386 59.416 40.386 97.488 0 76.137-61.721 137.858-137.858 137.858-38.064 0-72.525-15.427-97.472-40.37l-83.2-83.2c-24.947-24.947-40.378-59.412-40.378-97.48 0-76.137 61.721-137.858 137.858-137.858 38.068 0 72.533 15.43 97.48 40.378v0zM356.232 394.304c13.049 12.99 31.045 21.021 50.917 21.021 39.862 0 72.176-32.314 72.176-72.176 0-19.872-8.031-37.868-21.023-50.92l-87.749-87.749c-13.049-12.99-31.045-21.021-50.917-21.021-39.862 0-72.176 32.314-72.176 72.176 0 19.872 8.031 37.868 21.023 50.92l-0.003-0.003zM451.12 341.456l167.424 167.424c5.843 5.843 9.457 13.916 9.457 22.832 0 17.833-14.456 32.289-32.289 32.289-8.916 0-16.989-3.614-22.832-9.457l-167.424-167.424c-5.843-5.843-9.457-13.916-9.457-22.832 0-17.833 14.456-32.289 32.289-32.289 8.916 0 16.989 3.614 22.832 9.457v0z" />
<glyph unicode="&#xe945;" glyph-name="envelop" d="M928 832h-832c-52.8 0-96-43.2-96-96v-640c0-52.8 43.2-96 96-96h832c52.8 0 96 43.2 96 96v640c0 52.8-43.2 96-96 96zM398.74 409.628l-270.74-210.892v501.642l270.74-290.75zM176.38 704h671.24l-335.62-252-335.62 252zM409.288 398.302l102.712-110.302 102.71 110.302 210.554-270.302h-626.528l210.552 270.302zM625.26 409.628l270.74 290.75v-501.642l-270.74 210.892z" />
<glyph unicode="&#xe947;" glyph-name="web-browser3" d="M184 610.808v-436c0-15.579 12.629-28.208 28.208-28.208h599.592c15.575 0.005 28.2 12.632 28.2 28.208 0 0.006 0 0.011 0 0.017v-0.001 436zM811.792 749.376h-599.584c-15.576 0-28.203-12.625-28.208-28.2v0-110.4h656v110.4c-0.005 15.575-12.632 28.2-28.208 28.2v0zM609.24 680.696c0-14.024-11.368-25.392-25.392-25.392s-25.392 11.368-25.392 25.392c0 14.024 11.368 25.392 25.392 25.392s25.392-11.368 25.392-25.392zM699.032 680.696c0-14.024-11.368-25.392-25.392-25.392s-25.392 11.368-25.392 25.392c0 14.024 11.368 25.392 25.392 25.392s25.392-11.368 25.392-25.392zM788.816 679.496c0-14.024-11.368-25.392-25.392-25.392s-25.392 11.368-25.392 25.392c0 14.024 11.368 25.392 25.392 25.392s25.392-11.368 25.392-25.392zM235.184 551.384h169.952v-345.336h-169.952zM454.064 551.384h334.76v-22.464h-334.76zM454.064 470.664h334.76v-22.464h-334.76zM454.064 389.944h334.76v-22.464h-334.76zM454.064 309.232h334.76v-22.464h-334.76zM454.064 228.512h334.76v-22.464h-334.76z" />
<glyph unicode="&#xe952;" glyph-name="money-talk" d="M848 469.784c0-0.012 0-0.026 0-0.041 0-170.475-138.197-308.672-308.672-308.672-55.889 0-108.308 14.853-153.526 40.828l1.502-0.795c-85.096-55.048-195.304-51.552-195.304-51.552 45.688 25.008 81.088 80.984 104.648 129.552-41.128 51.957-65.976 118.439-65.976 190.725 0 170.47 138.194 308.664 308.664 308.664s308.664-138.194 308.664-308.664c0-0.016 0-0.031 0-0.047v0.002zM550.904 490.128q49.216-10.128 66.872-29.472c11.053-13.008 17.776-29.996 17.776-48.554 0-1.443-0.041-2.876-0.121-4.299l0.009 0.197c0.007-0.412 0.011-0.897 0.011-1.383 0-22.698-8.499-43.411-22.489-59.13l0.078 0.090c-15.403-16.987-37.49-27.672-62.075-27.88h-0.037v-30.76h-21.256v30.4q-80.968 8.856-86.52 87.064h38.496q4.368-49.6 48-56.952v110.912q-80.368 16.072-80.368 78.4c-0.047 0.993-0.073 2.158-0.073 3.329 0 20.743 8.322 39.543 21.81 53.241l-0.009-0.010c15.411 14.43 35.849 23.657 58.42 24.791l0.22 0.009v30.56h21.232v-30.56q70.648-5.36 77.6-72h-38.68q-3.2 36.912-38.896 41.872zM529.672 494.496v95.84q-41.872-7.344-41.872-48.616c-0.105-1.1-0.166-2.379-0.166-3.672 0-11.179 4.496-21.307 11.777-28.676l-0.004 0.004c8.413-7.007 18.598-12.191 29.774-14.792l0.49-0.096zM550.904 349.432q45.84 5.752 45.84 56.16c0.066 0.941 0.103 2.040 0.103 3.147 0 10.771-3.541 20.715-9.522 28.732l0.091-0.127q-9.328 11.112-36.512 18.256z" />
<glyph unicode="&#xe954;" glyph-name="award" d="M512 340.992l-15.088-39.744-8.216-21.616-63.496-167.632-40.304 96.032-93.216-45.368 74.64 196.792 12.16 32.2zM732.32 162.664l-93.216 45.368-40.304-96.032-63.496 167.632-8.216 21.616-15.088 39.744 133.52 50.664 12.272-32.2 8.328-22.064zM666.12 337.392l-5.856-0.336c-4.354-0.030-8.593-0.439-12.709-1.196l0.445 0.068c-1.992-3.065-3.912-6.613-5.549-10.315l-0.195-0.493c-5.52-11.6-12.384-26.12-28-32.648-4.43-1.853-9.577-2.929-14.975-2.929-0.079 0-0.158 0-0.237 0.001h0.012c-9.942 0.503-19.233 2.731-27.764 6.392l0.524-0.2c-3.324 1.361-7.315 2.6-11.431 3.507l-0.505 0.093c-3.384-2.461-6.358-4.935-9.164-7.585l0.044 0.041c-4.616-4.302-9.652-8.301-14.99-11.886l-0.434-0.274-8.216 21.6c-3.785-4.024-9.144-6.53-15.088-6.53s-11.303 2.506-15.078 6.519l-0.010 0.011-8.216-21.6c-5.772 3.859-10.808 7.858-15.496 12.227l0.072-0.067c-2.762 2.609-5.736 5.083-8.86 7.363l-0.26 0.181c-4.621-1-8.612-2.239-12.448-3.782l0.512 0.182c-8.007-3.461-17.299-5.689-27.047-6.184l-0.193-0.008c-0.067 0-0.146-0.001-0.225-0.001-5.398 0-10.546 1.076-15.239 3.026l0.263-0.097c-15.648 6.528-22.52 21.056-28.144 32.8-1.749 4.136-3.623 7.651-5.769 10.975l0.169-0.279c-3.61 0.667-7.84 1.113-12.151 1.237l-0.121 0.003-5.744 0.336 8.328 21.952 12.16 32.2 133.464-50.704 133.52 50.664 12.272-32.2zM738.064 445.688c-5.856-14.184-32.872-17.112-41.32-29.72s-1.008-38.728-11.824-49.536c-5.968-5.968-16.664-6.304-27.128-6.984-0.546 0.023-1.188 0.036-1.832 0.036-7.488 0-14.564-1.759-20.84-4.886l0.271 0.122c-12.608-8.56-15.536-35.464-29.72-41.432-13.96-5.744-35.128 11.256-50.32 8.216-9.792-1.912-18.8-13.056-28.256-20.264-3.785-4.024-9.144-6.53-15.088-6.53s-11.303 2.506-15.078 6.519l-0.010 0.011c-9.456 7.2-18.464 18.352-28.256 20.264-15.2 3.040-36.36-13.96-50.32-8.216-14.184 5.968-17.112 32.984-29.72 41.432-5.991 3.003-13.053 4.761-20.526 4.761-0.62 0-1.237-0.012-1.85-0.036l0.088 0.003c-10.584 0.672-21.392 1.016-27.36 6.984-10.696 10.808-3.152 36.8-11.704 49.536s-35.464 15.536-41.32 29.72 11.128 35.112 8.2 50.312c-2.928 14.752-26.792 27.808-26.792 43.344s23.864 28.712 26.792 43.344c2.928 15.2-13.96 36.36-8.216 50.32 5.856 14.184 32.872 17.112 41.32 29.72s1.008 38.84 11.824 49.648 36.8 3.152 49.536 11.712 15.536 35.464 29.72 41.32c13.96 5.856 35.128-11.144 50.32-8.104 14.744 2.832 27.808 26.696 43.344 26.696s28.6-23.864 43.344-26.68c15.2-3.040 36.36 13.96 50.32 8.104 14.184-5.856 17.112-32.872 29.72-41.32s38.84-0.904 49.648-11.712 3.152-36.928 11.704-49.648 35.464-15.536 41.32-29.72c5.744-13.96-11.144-35.128-8.216-50.32 2.928-14.64 26.792-27.696 26.792-43.344s-23.832-28.592-26.784-43.36c-2.928-15.2 13.96-36.344 8.216-50.312zM512 699.72c-0.017 0-0.036 0-0.056 0-88.533 0-160.304-71.771-160.304-160.304s71.771-160.304 160.304-160.304c88.514 0 160.272 71.739 160.304 160.245v0.003c-0.068 88.498-71.759 160.228-160.235 160.36h-0.013zM512 400.312c-0.014 0-0.031 0-0.048 0-76.825 0-139.104 62.279-139.104 139.104s62.279 139.104 139.104 139.104c76.825 0 139.104-62.279 139.104-139.104 0-0.020 0-0.039 0-0.059v0.003c-0.086-76.762-62.293-138.966-139.048-139.048h-0.008zM510.84 589.896h-0.584l-32.872-17.736-4.952 19.496 41.304 22.112h21.824v-164.8h-24.72z" />
<glyph unicode="&#xe956;" glyph-name="display" d="M0 896v-640h1024v640h-1024zM960 320h-896v512h896v-512zM672 192h-320l-32-128-64-64h512l-64 64z" />
<glyph unicode="&#xe957;" glyph-name="laptop" d="M896 256v512c0 35.2-28.8 64-64 64h-640c-35.2 0-64-28.8-64-64v-512h-128v-192h1024v192h-128zM640 128h-256v64h256v-64zM832 256h-640v511.886c0.034 0.040 0.076 0.082 0.114 0.114h639.77c0.040-0.034 0.082-0.076 0.116-0.116v-511.884z" />
<glyph unicode="&#xe958;" glyph-name="mobile" d="M736 960h-448c-52.8 0-96-43.2-96-96v-832c0-52.8 43.2-96 96-96h448c52.8 0 96 43.2 96 96v832c0 52.8-43.2 96-96 96zM384 912h256v-32h-256v32zM512 0c-35.346 0-64 28.654-64 64s28.654 64 64 64 64-28.654 64-64-28.654-64-64-64zM768 192h-512v640h512v-640z" />
<glyph unicode="&#xe959;" glyph-name="mobile2" d="M768 960h-576c-35.2 0-64-28.798-64-64v-896c0-35.2 28.798-64 64-64h576c35.2 0 64 28.8 64 64v896c0 35.202-28.8 64-64 64zM480-17.782c-27.492 0-49.782 22.29-49.782 49.782s22.29 49.782 49.782 49.782 49.782-22.29 49.782-49.782-22.29-49.782-49.782-49.782zM768 128h-576v704h576v-704z" />
<glyph unicode="&#xe963;" glyph-name="drive" d="M192 64h640c106.038 0 192 85.96 192 192h-1024c0-106.040 85.962-192 192-192zM832 192h64v-64h-64v64zM960 832h-896l-64-512h1024z" />
<glyph unicode="&#xe96f;" glyph-name="bubbles3" horiz-adv-x="1152" d="M1088 58.834c0-45.5 26.028-84.908 64-104.184v-15.938c-10.626-1.454-21.472-2.224-32.5-2.224-68.008 0-129.348 28.528-172.722 74.264-26.222-6.982-54.002-10.752-82.778-10.752-159.058 0-288 114.616-288 256s128.942 256 288 256c159.058 0 288-114.616 288-256 0-55.348-19.764-106.592-53.356-148.466-6.824-14.824-10.644-31.312-10.644-48.7zM230.678 738.814c-66.214-53.798-102.678-122.984-102.678-194.814 0-40.298 11.188-79.378 33.252-116.15 22.752-37.92 56.982-72.586 98.988-100.252 30.356-19.992 50.78-51.948 56.176-87.894 1.8-11.984 2.928-24.088 3.37-36.124 7.47 6.194 14.75 12.846 21.88 19.976 24.154 24.152 56.78 37.49 90.502 37.49 5.368 0 10.762-0.336 16.156-1.024 20.948-2.662 42.344-4.016 63.594-4.020v-128c-27.128 0.002-53.754 1.738-79.742 5.042-109.978-109.978-241.25-129.7-368.176-132.596v26.916c68.536 33.578 128 94.74 128 164.636 0 9.754-0.758 19.33-2.164 28.696-115.796 76.264-189.836 192.754-189.836 323.304 0 229.75 229.23 416 512 416 278.458 0 504.992-180.614 511.836-405.52-41.096 18.316-85.84 29.422-132.262 32.578-11.53 56.068-45.402 108.816-98.252 151.756-35.322 28.698-76.916 51.39-123.628 67.444-49.706 17.080-102.76 25.742-157.694 25.742-54.932 0-107.988-8.662-157.694-25.742-46.712-16.054-88.306-38.744-123.628-67.444z" />
<glyph unicode="&#xe974;" glyph-name="mobile-phone" d="M339.080 776h345.84c16.162 0 29.264-13.102 29.264-29.264v-597.472c0-16.162-13.102-29.264-29.264-29.264h-345.84c-16.162 0-29.264 13.102-29.264 29.264v597.472c0 16.162 13.102 29.264 29.264 29.264zM334.696 724.68h354.6v-520.688h-354.6zM547.512 756.688h-71.024c-4.010 0-7.26-3.25-7.26-7.26s3.25-7.26 7.26-7.26h71.024c4.010 0 7.26 3.25 7.26 7.26s-3.25 7.26-7.26 7.26v0zM536.888 161.992c0-13.745-11.143-24.888-24.888-24.888s-24.888 11.143-24.888 24.888c0 13.745 11.143 24.888 24.888 24.888s24.888-11.143 24.888-24.888zM382.696 684.68h47.608c4.418 0 8-3.582 8-8v-47.608c0-4.418-3.582-8-8-8h-47.608c-4.418 0-8 3.582-8 8v47.608c0 4.418 3.582 8 8 8zM488.2 684.68h47.608c4.418 0 8-3.582 8-8v-47.608c0-4.418-3.582-8-8-8h-47.608c-4.418 0-8 3.582-8 8v47.608c0 4.418 3.582 8 8 8zM593.696 684.68h47.608c4.418 0 8-3.582 8-8v-47.608c0-4.418-3.582-8-8-8h-47.608c-4.418 0-8 3.582-8 8v47.608c0 4.418 3.582 8 8 8zM382.696 581.68h47.608c4.418 0 8-3.582 8-8v-47.608c0-4.418-3.582-8-8-8h-47.608c-4.418 0-8 3.582-8 8v47.608c0 4.418 3.582 8 8 8zM488.2 581.68h47.608c4.418 0 8-3.582 8-8v-47.608c0-4.418-3.582-8-8-8h-47.608c-4.418 0-8 3.582-8 8v47.608c0 4.418 3.582 8 8 8zM593.696 581.68h47.608c4.418 0 8-3.582 8-8v-47.608c0-4.418-3.582-8-8-8h-47.608c-4.418 0-8 3.582-8 8v47.608c0 4.418 3.582 8 8 8zM382.696 478.68h47.608c4.418 0 8-3.582 8-8v-47.608c0-4.418-3.582-8-8-8h-47.608c-4.418 0-8 3.582-8 8v47.608c0 4.418 3.582 8 8 8z" />
<glyph unicode="&#xe985;" glyph-name="life-saver" d="M744 680c-59.362 59.344-141.359 96.048-231.93 96.048-181.176 0-328.048-146.872-328.048-328.048s146.872-328.048 328.048-328.048c90.571 0 172.569 36.704 231.931 96.049l-0.001-0.001c59.359 59.381 96.072 141.403 96.072 232s-36.713 172.619-96.073 232.001l0.001-0.001zM375.464 311.464c-34.943 34.943-56.556 83.217-56.556 136.539 0 106.644 86.452 193.096 193.096 193.096s193.096-86.452 193.096-193.096c0-53.322-21.613-101.596-56.556-136.539v0c-34.941-34.95-83.216-56.567-136.54-56.567s-101.599 21.617-136.54 56.567v0zM806.4 625.848l-116.552 116.552c-5.786 5.76-13.765 9.321-22.575 9.321-10.331 0-19.519-4.896-25.369-12.494l-0.056-0.075-69.592-91.416c-4.061-5.308-6.507-12.039-6.507-19.342 0-8.824 3.571-16.814 9.348-22.603l94.695-94.695c5.788-5.776 13.778-9.347 22.602-9.347 7.303 0 14.034 2.446 19.419 6.564l-0.077-0.057 91.44 69.552c7.678 5.906 12.578 15.097 12.578 25.432 0 8.827-3.574 16.819-9.354 22.609v0zM451.736 647.736l-69.552 91.464c-5.906 7.673-15.094 12.569-25.425 12.569-8.811 0-16.79-3.561-22.576-9.322l-116.583-116.599c-5.76-5.786-9.321-13.765-9.321-22.575 0-10.331 4.896-19.519 12.494-25.369l0.075-0.056 91.44-69.552c5.308-4.061 12.039-6.507 19.342-6.507 8.824 0 16.814 3.571 22.603 9.348l94.671 94.655c5.773 5.788 9.343 13.776 9.343 22.597 0 7.305-2.448 14.038-6.567 19.424l0.057-0.077zM451.736 248.264c4.061 5.308 6.507 12.039 6.507 19.342 0 8.824-3.571 16.814-9.348 22.603l-94.687 94.695c-5.788 5.776-13.778 9.347-22.602 9.347-7.303 0-14.034-2.446-19.419-6.564l0.077 0.057-91.464-69.56c-7.673-5.906-12.569-15.094-12.569-25.425 0-8.811 3.561-16.79 9.322-22.576l116.599-116.583c5.786-5.76 13.765-9.321 22.575-9.321 10.331 0 19.519 4.896 25.369 12.494l0.056 0.075zM803.2 318.184l-91.44 69.552c-5.308 4.061-12.039 6.507-19.342 6.507-8.824 0-16.814-3.571-22.603-9.348l-94.719-94.687c-5.776-5.788-9.347-13.778-9.347-22.602 0-7.303 2.446-14.034 6.564-19.419l-0.057 0.077 69.552-91.44c5.906-7.673 15.094-12.569 25.425-12.569 8.811 0 16.79 3.561 22.576 9.322l116.591 116.575c5.783 5.79 9.359 13.784 9.359 22.614 0 10.327-4.892 19.511-12.485 25.362l-0.075 0.055z" />
<glyph unicode="&#xe98a;" glyph-name="calendar" d="M184 614.104v-435.2c0-21.027 17.045-38.072 38.072-38.072v0h579.848c0.002 0 0.005 0 0.008 0 21.027 0 38.072 17.045 38.072 38.072 0 0.003 0 0.006 0 0.008v0 435.2zM184 700.064v-85.96h656v85.96c0 21.027-17.045 38.072-38.072 38.072h-579.856c-21.027 0-38.072-17.045-38.072-38.072v0zM400.088 551.496h65.248c7.303 0 13.224-5.921 13.224-13.224v-55.088c0-7.303-5.921-13.224-13.224-13.224h-65.248c-7.303 0-13.224 5.921-13.224 13.224v55.088c0 7.303 5.921 13.224 13.224 13.224zM558.664 551.496h65.248c7.303 0 13.224-5.921 13.224-13.224v-55.088c0-7.303-5.921-13.224-13.224-13.224h-65.248c-7.303 0-13.224 5.921-13.224 13.224v55.088c0 7.303 5.921 13.224 13.224 13.224zM717.24 551.496h65.248c7.303 0 13.224-5.921 13.224-13.224v-55.088c0-7.303-5.921-13.224-13.224-13.224h-65.248c-7.303 0-13.224 5.921-13.224 13.224v55.088c0 7.303 5.921 13.224 13.224 13.224zM241.512 418.24h65.248c7.303 0 13.224-5.921 13.224-13.224v-55.088c0-7.303-5.921-13.224-13.224-13.224h-65.248c-7.303 0-13.224 5.921-13.224 13.224v55.088c0 7.303 5.921 13.224 13.224 13.224zM400.088 418.24h65.248c7.303 0 13.224-5.921 13.224-13.224v-55.088c0-7.303-5.921-13.224-13.224-13.224h-65.248c-7.303 0-13.224 5.921-13.224 13.224v55.088c0 7.303 5.921 13.224 13.224 13.224zM558.664 418.24h65.248c7.303 0 13.224-5.921 13.224-13.224v-55.088c0-7.303-5.921-13.224-13.224-13.224h-65.248c-7.303 0-13.224 5.921-13.224 13.224v55.088c0 7.303 5.921 13.224 13.224 13.224zM717.24 418.24h65.248c7.303 0 13.224-5.921 13.224-13.224v-55.088c0-7.303-5.921-13.224-13.224-13.224h-65.248c-7.303 0-13.224 5.921-13.224 13.224v55.088c0 7.303 5.921 13.224 13.224 13.224zM241.512 284.976h65.248c7.303 0 13.224-5.921 13.224-13.224v-55.088c0-7.303-5.921-13.224-13.224-13.224h-65.248c-7.303 0-13.224 5.921-13.224 13.224v55.088c0 7.303 5.921 13.224 13.224 13.224zM400.088 284.976h65.248c7.303 0 13.224-5.921 13.224-13.224v-55.088c0-7.303-5.921-13.224-13.224-13.224h-65.248c-7.303 0-13.224 5.921-13.224 13.224v55.088c0 7.303 5.921 13.224 13.224 13.224zM558.664 284.976h65.248c7.303 0 13.224-5.921 13.224-13.224v-55.088c0-7.303-5.921-13.224-13.224-13.224h-65.248c-7.303 0-13.224 5.921-13.224 13.224v55.088c0 7.303 5.921 13.224 13.224 13.224zM356 676.12c0-19.215-15.577-34.792-34.792-34.792s-34.792 15.577-34.792 34.792c0 19.215 15.577 34.792 34.792 34.792s34.792-15.577 34.792-34.792zM737.584 676.12c0-19.215-15.577-34.792-34.792-34.792s-34.792 15.577-34.792 34.792c0 19.215 15.577 34.792 34.792 34.792s34.792-15.577 34.792-34.792zM321.208 787.2c-11.046 0-20-8.954-20-20v0-84.248c0-11.046 8.954-20 20-20s20 8.954 20 20v0 84.248c0 11.046-8.954 20-20 20v0zM702.792 787.2c-11.046 0-20-8.954-20-20v0-84.248c0-11.046 8.954-20 20-20s20 8.954 20 20v0 84.248c0 11.046-8.954 20-20 20v0z" />
<glyph unicode="&#xe99a;" glyph-name="pay-per-click" d="M603.872 274.36l26.552-90.36h-235.712l26.56 90.36zM672.576 174.8v-7.080h-320v7.080c0 16.895 13.697 30.592 30.592 30.592v0h258.816c16.895 0 30.592-13.697 30.592-30.592v0zM213.376 728.28h597.248c14.015 0 25.376-11.361 25.376-25.376v-421.152c0-14.015-11.361-25.376-25.376-25.376h-597.248c-14.015 0-25.376 11.361-25.376 25.376v421.152c0 14.015 11.361 25.376 25.376 25.376zM218.16 698.12h587.672v-360.808h-587.672zM788 295.2c-0.023-6.199-5.054-11.216-11.256-11.216-6.217 0-11.256 5.039-11.256 11.256s5.039 11.256 11.256 11.256c0.020 0 0.039 0 0.059 0h-0.003c6.194-0.041 11.2-5.072 11.2-11.272 0-0.009 0-0.017 0-0.026v0.001zM739.48 295.2c-0.023-6.199-5.054-11.216-11.256-11.216-6.217 0-11.256 5.039-11.256 11.256s5.039 11.256 11.256 11.256c0.020 0 0.039 0 0.059 0h-0.003c6.194-0.041 11.2-5.072 11.2-11.272 0-0.009 0-0.017 0-0.026v0.001zM690.976 295.2c-0.023-6.199-5.054-11.216-11.256-11.216-6.217 0-11.256 5.039-11.256 11.256s5.039 11.256 11.256 11.256c0.020 0 0.039 0 0.059 0h-0.003c6.194-0.041 11.2-5.072 11.2-11.272 0-0.009 0-0.017 0-0.026v0.001zM568.016 518.464c0-64.348-52.164-116.512-116.512-116.512s-116.512 52.164-116.512 116.512c0 64.348 52.164 116.512 116.512 116.512s116.512-52.164 116.512-116.512zM545.192 518.464c0-51.742-41.946-93.688-93.688-93.688s-93.688 41.946-93.688 93.688c0 51.742 41.946 93.688 93.688 93.688s93.688-41.946 93.688-93.688zM661.952 444.712l22.080 13.824-72.648 19.28 19.28-72.648 13.824 22.080 27.064-26.8 17.456 17.464zM625.44 488.8c-0.365-0.353-0.863-0.57-1.411-0.57-0.095 0-0.188 0.006-0.279 0.019l0.011-0.001c-1.304 0.18-2.31 1.244-2.4 2.559v0.009l-0.624 17.496c-0.003 0.038-0.004 0.082-0.004 0.126 0 1.082 0.878 1.96 1.96 1.96 0.103 0 0.204-0.008 0.303-0.023l-0.011 0.001c1.304-0.18 2.31-1.244 2.4-2.559v-0.009l0.624-17.496c0.002-0.033 0.003-0.071 0.003-0.109 0-0.546-0.218-1.041-0.571-1.403v0zM613.312 484.8c-0.144-0.142-0.31-0.263-0.493-0.355l-0.011-0.005c-0.281-0.115-0.607-0.181-0.948-0.181-0.965 0-1.806 0.533-2.245 1.32l-0.007 0.013-8.8 14.776c-0.241 0.342-0.385 0.767-0.385 1.226 0 0.793 0.431 1.486 1.071 1.856l0.010 0.006c0.281 0.115 0.607 0.181 0.948 0.181 0.965 0 1.806-0.533 2.245-1.32l0.007-0.013 8.8-14.776c0.237-0.348 0.378-0.778 0.378-1.241 0-0.573-0.216-1.095-0.572-1.489l0.002 0.002zM604.424 475.888c-0.392-0.354-0.914-0.57-1.487-0.57-0.463 0-0.893 0.141-1.249 0.383l0.008-0.005-14.776 8.8c-0.801 0.445-1.333 1.286-1.333 2.252 0 0.341 0.067 0.667 0.188 0.965l-0.006-0.017c0.374 0.652 1.066 1.085 1.859 1.085 0.46 0 0.887-0.146 1.235-0.393l-0.007 0.004 14.776-8.8c0.801-0.445 1.333-1.286 1.333-2.252 0-0.341-0.067-0.667-0.188-0.965l0.006 0.017c-0.097-0.194-0.218-0.36-0.36-0.504v0zM600.384 463.76c-0.362-0.353-0.857-0.571-1.403-0.571-0.039 0-0.077 0.001-0.115 0.003h0.005l-17.496 0.624c-1.324 0.090-2.388 1.096-2.566 2.385l-0.002 0.015c-0.014 0.088-0.022 0.189-0.022 0.292 0 1.082 0.878 1.96 1.96 1.96 0.044 0 0.088-0.001 0.132-0.004h-0.006l17.496-0.624c1.324-0.090 2.388-1.096 2.566-2.385l0.002-0.015c0.011-0.081 0.018-0.174 0.018-0.269 0-0.548-0.217-1.046-0.57-1.412l0.001 0.001zM455.552 525.552c9.005-1.106 16.988-4.805 23.359-10.319l-0.055 0.047c3.85-4.532 6.192-10.45 6.192-16.915 0-0.508-0.014-1.013-0.043-1.514l0.003 0.069c0.002-0.14 0.004-0.305 0.004-0.47 0-7.915-2.966-15.138-7.847-20.617l0.027 0.031c-5.369-5.919-13.067-9.642-21.635-9.712h-0.013v-10.72h-7.4v10.576q-28.216 3.112-30.152 30.36h13.416c-0.008-0.202-0.012-0.44-0.012-0.679 0-9.768 7.24-17.845 16.646-19.157l0.102-0.012v38.68q-28 5.6-28 27.312c-0.016 0.346-0.025 0.752-0.025 1.16 0 7.23 2.902 13.782 7.605 18.555l-0.003-0.003c5.37 5.027 12.491 8.242 20.355 8.637l0.077 0.003v10.632h7.4v-10.648c0.326 0.015 0.709 0.023 1.093 0.023 14.044 0 25.484-11.153 25.946-25.085l0.001-0.042h-13.488c0.001 0.047 0.001 0.102 0.001 0.157 0 7.668-5.966 13.942-13.51 14.433l-0.043 0.002zM448.152 527.072v33.4c-8.202-0.55-14.647-7.338-14.647-15.631 0-0.462 0.020-0.92 0.059-1.372l-0.004 0.059c-0.037-0.384-0.058-0.83-0.058-1.281 0-3.896 1.568-7.425 4.107-9.992l-0.001 0.001c2.931-2.44 6.48-4.245 10.373-5.151l0.171-0.033zM455.552 476.52c9.042 0.517 16.178 7.976 16.178 17.102 0 0.87-0.065 1.725-0.19 2.561l0.012-0.094c0.022 0.325 0.035 0.705 0.035 1.087 0 3.756-1.232 7.224-3.315 10.022l0.032-0.045c-3.41 3.218-7.746 5.491-12.567 6.377l-0.153 0.023z" />
<glyph unicode="&#xe99d;" glyph-name="stats-bars2" d="M288 576h-192c-17.6 0-32-14.4-32-32v-576c0-17.6 14.4-32 32-32h192c17.6 0 32 14.4 32 32v576c0 17.6-14.4 32-32 32zM288 0h-192v256h192v-256zM608 704h-192c-17.6 0-32-14.4-32-32v-704c0-17.6 14.4-32 32-32h192c17.6 0 32 14.4 32 32v704c0 17.6-14.4 32-32 32zM608 0h-192v320h192v-320zM928 832h-192c-17.6 0-32-14.4-32-32v-832c0-17.6 14.4-32 32-32h192c17.6 0 32 14.4 32 32v832c0 17.6-14.4 32-32 32zM928 0h-192v384h192v-384z" />
<glyph unicode="&#xe99e;" glyph-name="trophy" d="M832 768v128h-640v-128h-192v-128c0-106.038 85.958-192 192-192 20.076 0 39.43 3.086 57.62 8.802 46.174-66.008 116.608-113.796 198.38-130.396v-198.406h-64c-70.694 0-128-57.306-128-128h512c0 70.694-57.306 128-128 128h-64v198.406c81.772 16.6 152.206 64.386 198.38 130.396 18.19-5.716 37.544-8.802 57.62-8.802 106.042 0 192 85.962 192 192v128h-192zM192 524c-63.962 0-116 52.038-116 116v64h116v-64c0-40.186 7.43-78.632 20.954-114.068-6.802-1.246-13.798-1.932-20.954-1.932zM948 640c0-63.962-52.038-116-116-116-7.156 0-14.152 0.686-20.954 1.932 13.524 35.436 20.954 73.882 20.954 114.068v64h116v-64z" />
<glyph unicode="&#xe9a6;" glyph-name="meter" d="M512 896c282.77 0 512-229.23 512-512 0-192.792-106.576-360.666-264.008-448h-495.984c-157.432 87.334-264.008 255.208-264.008 448 0 282.77 229.23 512 512 512zM801.914 94.086c77.438 77.44 120.086 180.398 120.086 289.914h-90v64h85.038c-7.014 44.998-21.39 88.146-42.564 128h-106.474v64h64.284c-9.438 11.762-19.552 23.096-30.37 33.914-46.222 46.22-101.54 80.038-161.914 99.798v-69.712h-64v85.040c-20.982 3.268-42.36 4.96-64 4.96s-43.018-1.69-64-4.96v-85.040h-64v69.712c-60.372-19.76-115.692-53.576-161.914-99.798-10.818-10.818-20.932-22.152-30.37-33.914h64.284v-64h-106.476c-21.174-39.854-35.552-83.002-42.564-128h85.040v-64h-90c0-109.516 42.648-212.474 120.086-289.914 10.71-10.71 21.924-20.728 33.56-30.086h192.354l36.572 512h54.856l36.572-512h192.354c11.636 9.358 22.852 19.378 33.56 30.086z" />
<glyph unicode="&#xe9ae;" glyph-name="pie-graph" d="M845.536 445.536c0-0.134 0-0.292 0-0.45 0-94.919-39.772-180.55-103.561-241.135l-0.144-0.135-54.264 56.904c48.998 46.433 79.488 111.974 79.488 184.637 0 0.057 0 0.114 0 0.172v-0.009zM512 779.064v-78.48c-0.024 0-0.051 0-0.079 0-140.806 0-254.952-114.146-254.952-254.952 0-53.347 16.384-102.866 44.396-143.802l-0.565 0.874-62.616-47.592c-37.353 53.128-59.697 119.163-59.697 190.416 0 184.199 149.316 333.523 333.511 333.536h0.001zM845.536 445.536h-78.48c-0.159 140.799-114.257 254.897-255.041 255.056h-0.015v78.48c184.205-0.005 333.532-149.331 333.536-333.536v0zM741.832 203.816c-59.701-56.846-140.681-91.82-229.829-91.82-112.95 0-212.786 56.142-273.127 142.044l-0.709 1.065 62.632 47.6c46.428-68.090 123.628-112.212 211.134-112.212 68.137 0 130.026 26.752 175.736 70.325l-0.102-0.097zM593.28 538.024h69.136v-218.616h-69.136zM361.584 491.312h69.136v-171.904h-69.136zM477.432 586.608h69.136v-267.2h-69.136z" />
<glyph unicode="&#xe9b5;" glyph-name="magnifying-glass" d="M816.92 536.744c0-118.295-95.897-214.192-214.192-214.192s-214.192 95.897-214.192 214.192c0 118.295 95.897 214.192 214.192 214.192s214.192-95.897 214.192-214.192zM440.616 325.304l-2.752-2.752-51.672 51.672 2.752 2.752zM759.2 717.24c49.632-43.714 80.781-107.403 80.781-178.368 0-131.064-106.248-237.312-237.312-237.312-42.38 0-82.166 11.109-116.604 30.575l1.183-0.615c-5.524 3.187-12.148 5.067-19.212 5.067-10.69 0-20.375-4.306-27.415-11.278l0.003 0.003-51.672 51.672c6.966 7.044 11.27 16.734 11.27 27.43 0 7.065-1.878 13.692-5.162 19.408l0.101-0.19c-18.779 33.205-29.845 72.918-29.845 115.216 0 131.068 106.252 237.32 237.32 237.32 60.096 0 114.974-22.337 156.786-59.162l-0.261 0.226zM460.272 396.44c36.454-36.456 86.815-59.004 142.443-59.004 111.252 0 201.44 90.188 201.44 201.44s-90.188 201.44-201.44 201.44c-55.628 0-105.989-22.548-142.443-59.004v0c-36.339-36.509-58.804-86.855-58.804-142.448 0-55.589 22.462-105.932 58.804-142.448l-0.008 0.008zM207.664 240l165.888 143.272 73.448-73.448-143.12-165.968c-12.576-14.526-31.044-23.661-51.645-23.661-18.831 0-35.879 7.633-48.219 19.973v0c-12.341 12.341-19.975 29.389-19.975 48.221 0 20.583 9.119 39.036 23.538 51.539l0.085 0.072zM355.544 387.584c-2.896-2.833-4.692-6.782-4.692-11.149 0-3.412 1.096-6.569 2.956-9.136l-0.031 0.045c0.499-0.828 1.085-1.539 1.76-2.153l0.008-0.007 73.48-73.48c0.613-0.695 1.325-1.282 2.119-1.746l0.041-0.022c2.484-1.664 5.54-2.656 8.828-2.656 8.837 0 16 7.163 16 16 0 4.272-1.674 8.153-4.403 11.023l0.006-0.007-73.48 73.48c-2.872 2.855-6.83 4.62-11.201 4.62-4.466 0-8.501-1.842-11.387-4.809l-0.003-0.004zM688.064 581.352c0-88-85.36-188.952-85.36-188.952s-85.36 102.288-85.36 188.952c0 47.143 38.217 85.36 85.36 85.36s85.36-38.217 85.36-85.36v0zM654.448 581.352c0-28.582-23.17-51.752-51.752-51.752s-51.752 23.17-51.752 51.752c0 28.582 23.17 51.752 51.752 51.752v0c0.017 0 0.036 0 0.056 0 28.551 0 51.696-23.145 51.696-51.696 0-0.020 0-0.039 0-0.059v0.003z" />
<glyph unicode="&#xe9bc;" glyph-name="cloud" d="M705.68 293.544c0.023 0 0.049 0 0.076 0 74.139 0 134.24 60.101 134.24 134.24 0 57.887-36.64 107.216-87.993 126.061l-0.932 0.299c0.913 4.948 1.436 10.641 1.436 16.457 0 52.489-42.551 95.040-95.040 95.040-15.81 0-30.719-3.86-43.834-10.69l0.526 0.249c-28.14 42.837-75.969 70.73-130.312 70.73-85.829 0-155.408-69.579-155.408-155.408 0-0.023 0-0.046 0-0.069v0.004c0-2.976 0.28-5.88 0.448-8.8-3.496 0.272-7 0.536-10.568 0.536-0.308 0.003-0.672 0.004-1.037 0.004-74.183 0-134.32-60.137-134.32-134.32s60.137-134.32 134.32-134.32c0.364 0 0.729 0.001 1.092 0.004h-0.056zM615.648 350.896h-51.064c-0.968 0-1.752-0.784-1.752-1.752v0-177.32c0-0.968-0.784-1.752-1.752-1.752v0h-98.16c-0.968 0-1.752 0.784-1.752 1.752v0 177.32c0 0.968-0.784 1.752-1.752 1.752v0h-51.064c-0.967 0.001-1.751 0.785-1.751 1.752 0 0.378 0.119 0.727 0.323 1.013l-0.004-0.005 103.48 147.592c0.321 0.455 0.844 0.748 1.436 0.748s1.115-0.293 1.432-0.743l0.004-0.006 103.808-147.592c0.2-0.281 0.319-0.63 0.319-1.008 0-0.967-0.784-1.751-1.751-1.752v0z" />
<glyph unicode="&#xe9bd;" glyph-name="tree" d="M976 192h-16v208c0 61.756-50.242 112-112 112h-272v128h16c26.4 0 48 21.6 48 48v160c0 26.4-21.6 48-48 48h-160c-26.4 0-48-21.6-48-48v-160c0-26.4 21.6-48 48-48h16v-128h-272c-61.756 0-112-50.244-112-112v-208h-16c-26.4 0-48-21.6-48-48v-160c0-26.4 21.6-48 48-48h160c26.4 0 48 21.6 48 48v160c0 26.4-21.6 48-48 48h-16v192h256v-192h-16c-26.4 0-48-21.6-48-48v-160c0-26.4 21.6-48 48-48h160c26.4 0 48 21.6 48 48v160c0 26.4-21.6 48-48 48h-16v192h256v-192h-16c-26.4 0-48-21.6-48-48v-160c0-26.4 21.6-48 48-48h160c26.4 0 48 21.6 48 48v160c0 26.4-21.6 48-48 48zM192 0h-128v128h128v-128zM576 0h-128v128h128v-128zM448 704v128h128v-128h-128zM960 0h-128v128h128v-128z" />
<glyph unicode="&#xe9be;" glyph-name="map-point" d="M730.4 565.6c0.224-260.4-218.4-453.6-218.4-453.6s-218.4 193.2-218.4 453.6c0 120.619 97.781 218.4 218.4 218.4s218.4-97.781 218.4-218.4v0zM644.2 565.6c0-73.012-59.188-132.2-132.2-132.2s-132.2 59.188-132.2 132.2c0 73.012 59.188 132.2 132.2 132.2s132.2-59.188 132.2-132.2z" />
<glyph unicode="&#xe9c0;" glyph-name="ranking" d="M184 725.704h176.024v-555.416h-176.024zM428.36 590.136h176.024v-419.84h-176.024zM663.976 457.472h176.024v-287.184h-176.024zM291.696 485.328h-18.24v111.848c-8.62-4.742-18.892-7.532-29.815-7.532-1.557 0-3.101 0.057-4.629 0.168l0.205-0.012v14.36q33.464 0 38.4 25.8h14.064zM553.488 400h-82.976c0.073 8.215 2.721 15.797 7.174 21.994l-0.078-0.114c7.556 9.771 16.122 18.227 25.683 25.434l0.341 0.246c9.676 7.357 18.184 15.362 25.787 24.17l0.181 0.214c4.37 5.538 7.010 12.619 7.010 20.315 0 0.114-0.001 0.228-0.002 0.342v-0.017c0.021 0.358 0.033 0.776 0.033 1.198 0 5.849-2.291 11.162-6.026 15.092l0.009-0.009c-4.049 3.707-9.465 5.978-15.412 5.978-0.488 0-0.973-0.015-1.454-0.045l0.066 0.003c-0.151 0.004-0.328 0.006-0.506 0.006-5.995 0-11.46-2.274-15.577-6.007l0.020 0.017c-4.574-4.484-7.435-10.7-7.52-17.584v-0.016h-16.736c0.488 10.447 5.065 19.739 12.155 26.38l0.021 0.020c7.067 6.16 16.37 9.915 26.55 9.915 0.656 0 1.309-0.016 1.958-0.046l-0.092 0.003c0.758 0.052 1.643 0.082 2.535 0.082 10.152 0 19.406-3.842 26.387-10.152l-0.034 0.030c6.285-6.16 10.181-14.738 10.181-24.225 0-0.331-0.005-0.662-0.014-0.991l0.001 0.048c0.004-0.205 0.006-0.447 0.006-0.689 0-8.801-2.821-16.944-7.607-23.573l0.081 0.119c-8.92-10.837-18.715-20.388-29.454-28.787l-0.41-0.309q-22.344-18.632-22.776-24.096h60.504zM768.416 346.008c6.934-1.644 12.757-5.608 16.744-11.009l0.056-0.079c3.702-5.182 5.92-11.647 5.92-18.629 0-0.246-0.003-0.491-0.008-0.736l0.001 0.036c0.013-0.361 0.021-0.785 0.021-1.211 0-10.17-4.368-19.321-11.33-25.677l-0.027-0.024c-7.66-6.444-17.633-10.36-28.521-10.36-10.245 0-19.68 3.467-27.197 9.291l0.102-0.076c-6.83 5.984-11.177 14.657-11.375 24.35l-0.001 0.034h15.904c-0.002-0.111-0.003-0.243-0.003-0.374 0-5.756 2.269-10.983 5.962-14.833l-0.007 0.007c4.449-3.95 10.339-6.363 16.794-6.363 6.75 0 12.884 2.639 17.426 6.941l-0.012-0.011c3.986 4.466 6.422 10.389 6.422 16.882 0 0.371-0.008 0.74-0.024 1.107l0.002-0.052c0.028 0.42 0.044 0.911 0.044 1.405 0 6.236-2.561 11.874-6.689 15.919l-0.004 0.004c-4.718 3.825-10.795 6.141-17.414 6.141-0.688 0-1.37-0.025-2.045-0.074l0.090 0.005h-5.872v12h3.504q22.344 0 22.344 20.552c0.027 0.373 0.042 0.809 0.042 1.248 0 4.876-1.878 9.313-4.949 12.628l0.011-0.012c-3.592 2.998-8.259 4.818-13.35 4.818-10.878 0-19.816-8.309-20.812-18.927l-0.006-0.083h-15.808c0.589 9.29 4.94 17.46 11.53 23.082l0.046 0.038c6.301 4.97 14.355 7.971 23.111 7.971 0.42 0 0.838-0.007 1.254-0.021l-0.061 0.002c0.559 0.031 1.213 0.048 1.871 0.048 9.026 0 17.28-3.307 23.615-8.776l-0.046 0.039c5.829-5.325 9.472-12.958 9.472-21.443 0-0.337-0.006-0.672-0.017-1.006l0.001 0.049c-0.002-5.359-1.536-10.359-4.187-14.587l0.067 0.115c-2.987-4.676-7.305-8.271-12.416-10.291l-0.176-0.061z" />
<glyph unicode="&#xe9c6;" glyph-name="folder" d="M268 705.72h167.52c0 0 0.001 0 0.001 0 13.88 0 25.728-8.7 30.389-20.945l0.075-0.223 15.152-40.72h331.896c14.89-0.032 26.95-12.1 26.968-26.99v-0.002l-0.32-405.008-47.68 322.856c-3.074 15.536-16.586 27.090-32.798 27.104h-523.714v111.424c0 17.951 14.553 32.504 32.504 32.504 0.003 0 0.006 0 0.008 0v0zM800.064 458.64v133.544c0 4.418-3.582 8-8 8v0h-518.632c-4.418 0-8-3.582-8-8v0-133.544zM839.68 211.832l-47.68 322.856c-2.072 10.952-21.72 27.144-32.864 27.144h-552c-12.807-0.008-23.187-10.392-23.187-23.2 0-1.522 0.147-3.010 0.426-4.45l-0.024 0.146 51.2-325.168c2.105-10.819 11.503-18.875 22.783-18.88h563.433c0.018 0 0.040 0 0.062 0 10.034 0 18.168 8.134 18.168 18.168 0 1.197-0.116 2.367-0.337 3.499l0.019-0.115zM839.68 211.832l-47.68 322.856c-2.225 15.445-15.369 27.182-31.255 27.182-0.543 0-1.084-0.014-1.621-0.041l0.075 0.003h-552c-12.807-0.008-23.187-10.392-23.187-23.2 0-1.522 0.147-3.010 0.426-4.45l-0.024 0.146 51.2-325.168c2.105-10.819 11.503-18.875 22.783-18.88h563.433c10.033 0.001 18.166 8.135 18.166 18.168 0 1.197-0.116 2.367-0.337 3.499l0.019-0.115z" />
<glyph unicode="&#xe9ca;" glyph-name="earth" d="M512 960c-282.77 0-512-229.23-512-512s229.23-512 512-512 512 229.23 512 512-229.23 512-512 512zM512-0.002c-62.958 0-122.872 13.012-177.23 36.452l233.148 262.29c5.206 5.858 8.082 13.422 8.082 21.26v96c0 17.674-14.326 32-32 32-112.99 0-232.204 117.462-233.374 118.626-6 6.002-14.14 9.374-22.626 9.374h-128c-17.672 0-32-14.328-32-32v-192c0-12.122 6.848-23.202 17.69-28.622l110.31-55.156v-187.886c-116.052 80.956-192 215.432-192 367.664 0 68.714 15.49 133.806 43.138 192h116.862c8.488 0 16.626 3.372 22.628 9.372l128 128c6 6.002 9.372 14.14 9.372 22.628v77.412c40.562 12.074 83.518 18.588 128 18.588 70.406 0 137.004-16.26 196.282-45.2-4.144-3.502-8.176-7.164-12.046-11.036-36.266-36.264-56.236-84.478-56.236-135.764s19.97-99.5 56.236-135.764c36.434-36.432 85.218-56.264 135.634-56.26 3.166 0 6.342 0.080 9.518 0.236 13.814-51.802 38.752-186.656-8.404-372.334-0.444-1.744-0.696-3.488-0.842-5.224-81.324-83.080-194.7-134.656-320.142-134.656z" />
<glyph unicode="&#xe9d7;" glyph-name="star-empty" d="M1024 562.95l-353.78 51.408-158.22 320.582-158.216-320.582-353.784-51.408 256-249.538-60.432-352.352 316.432 166.358 316.432-166.358-60.434 352.352 256.002 249.538zM512 206.502l-223.462-117.48 42.676 248.83-180.786 176.222 249.84 36.304 111.732 226.396 111.736-226.396 249.836-36.304-180.788-176.222 42.678-248.83-223.462 117.48z" />
<glyph unicode="&#xe9d9;" glyph-name="cloud1" d="M705.68 332.872c0.023 0 0.049 0 0.076 0 74.139 0 134.24 60.101 134.24 134.24 0 57.887-36.64 107.216-87.993 126.061l-0.932 0.299c0.915 4.953 1.439 10.653 1.439 16.474 0 52.489-42.551 95.040-95.040 95.040-15.811 0-30.721-3.861-43.837-10.692l0.526 0.249c-28.14 42.837-75.969 70.73-130.312 70.73-85.829 0-155.408-69.579-155.408-155.408 0-0.026 0-0.052 0-0.078v0.004c0-2.976 0.28-5.88 0.448-8.8-3.496 0.272-7 0.536-10.568 0.536-0.308 0.003-0.672 0.004-1.037 0.004-74.183 0-134.32-60.137-134.32-134.32s60.137-134.32 134.32-134.32c0.364 0 0.729 0.001 1.092 0.004h-0.056zM615.648 281.832h-51.064c-0.968 0-1.752 0.784-1.752 1.752v0 177.32c0 0.968-0.784 1.752-1.752 1.752v0h-98.16c-0.968 0-1.752-0.784-1.752-1.752v-177.32c0-0.968-0.784-1.752-1.752-1.752v0h-51.064c-0.967-0.001-1.751-0.785-1.751-1.752 0-0.378 0.119-0.727 0.323-1.013l-0.004 0.005 103.48-147.592c0.321-0.455 0.844-0.748 1.436-0.748s1.115 0.293 1.432 0.743l0.004 0.006 103.808 147.592c0.2 0.281 0.319 0.63 0.319 1.008 0 0.967-0.784 1.751-1.751 1.752v0z" />
<glyph unicode="&#xe9da;" glyph-name="star-full" d="M1024 562.95l-353.78 51.408-158.22 320.582-158.216-320.582-353.784-51.408 256-249.538-60.432-352.352 316.432 166.358 316.432-166.358-60.434 352.352 256.002 249.538z" />
<glyph unicode="&#xe9fc;" glyph-name="trophy1" d="M379.2 258.48h265.592v-114.16h-265.592zM489.6 412.992c-6.76-34.36-24.52-97.008-53.984-130.2h152.8c-29.464 33.192-47.2 95.84-53.984 130.2zM682.488 715.768c0.354-3.292 0.556-7.111 0.556-10.978 0-10.423-1.468-20.503-4.209-30.045l0.188 0.767h62.984c-16.248-74.712-84.2-151.896-130.808-188.576-4.9-8.346-11.582-15.154-19.56-20.058l-0.248-0.142c117.576 16.952 180.328 157.264 198.296 218.064 4.2 14.2 2.704 31.008-25.848 31.008zM341.512 715.768c-0.354-3.292-0.556-7.111-0.556-10.978 0-10.423 1.468-20.503 4.209-30.045l-0.188 0.767h-62.984c16.248-74.712 84.2-151.896 130.808-188.576 4.9-8.346 11.582-15.154 19.56-20.058l0.248-0.142c-117.576 16.952-180.328 157.264-198.296 218.064-4.2 14.2-2.704 31.008 25.848 31.008zM688 747.584c0-207.144-78.76-375.040-176-375.040-34.328 0-66.52 21.016-93.664 57.472-49.488 66.4-82.352 183.728-82.352 317.6zM648.6 747.584c-9.048-189.048-84.080-336.456-175.080-336.456-20.847 0.383-39.979 7.417-55.443 19.063l0.243-0.175c-49.488 66.4-82.352 183.728-82.352 317.6zM372.344 282.8h279.312c8.068 0 14.608-6.54 14.608-14.608v0.008c0-8.068-6.54-14.608-14.608-14.608h-279.312c-8.068 0-14.608 6.54-14.608 14.608v-0.008c0 8.068 6.54 14.608 14.608 14.608zM687.784 776h-351.568c-9.203-0.206-16.584-7.715-16.584-16.948s7.381-16.742 16.565-16.948h351.587c0.11-0.003 0.239-0.004 0.368-0.004 9.362 0 16.952 7.59 16.952 16.952s-7.59 16.952-16.952 16.952c-0.129 0-0.259-0.001-0.387-0.004h0.019zM372.344 149.208h279.312c8.068 0 14.608-6.54 14.608-14.608v0.008c0-8.068-6.54-14.608-14.608-14.608h-279.312c-8.068 0-14.608 6.54-14.608 14.608v-0.008c0 8.068 6.54 14.608 14.608 14.608zM594.688 172.384h-165.376c0 9.747-7.901 17.648-17.648 17.648v0 25.128c9.744 0 17.643 7.897 17.648 17.64v0h165.376c0-9.747 7.901-17.648 17.648-17.648v0-25.128c-9.744 0-17.643-7.897-17.648-17.64v0z" />
<glyph unicode="&#xea06;" glyph-name="chess-game" d="M451.792 642.4h124.208c18.456 16.544 26.32 40.488 26.32 67.2 0 0.047 0 0.102 0 0.157 0 49.896-40.448 90.344-90.344 90.344s-90.344-40.448-90.344-90.344c0-26.726 11.605-50.742 30.051-67.283l0.085-0.075zM378.016 291.016h267.968v-94.128h-267.968zM321.808 167.528v-39.528h380.384v39.528c0 20.258-16.422 36.68-36.68 36.68v0h-307.024c-20.258 0-36.68-16.422-36.68-36.68v0zM385.992 301.696h252c-27.408 63.344-76.856 229.6-65.8 340.736h-120.4c11.056-111.168-38.392-277.392-65.8-340.736zM451.496 642.432h121c8.691 0 15.736-7.045 15.736-15.736s-7.045-15.736-15.736-15.736h-121c-8.691 0-15.736 7.045-15.736 15.736s7.045 15.736 15.736 15.736zM451.496 571.608h121c8.691 0 15.736-7.045 15.736-15.736s-7.045-15.736-15.736-15.736h-121c-8.691 0-15.736 7.045-15.736 15.736s7.045 15.736 15.736 15.736zM374.968 310.112h274.064c7.342-0.002 13.715-4.146 16.91-10.223l0.050-0.105c1.341-2.544 2.128-5.56 2.128-8.76 0-10.544-8.545-19.091-19.087-19.096h-274.064c-10.543 0.005-19.088 8.552-19.088 19.096 0 3.2 0.787 6.216 2.178 8.865l-0.050-0.105c3.245 6.182 9.618 10.326 16.96 10.328v0zM501.353 770.691c8.579-7.561 5.176-25.443-7.601-39.941s-30.090-20.12-38.669-12.559c-8.579 7.561-5.176 25.443 7.601 39.941s30.090 20.12 38.669 12.559z" />
<glyph unicode="&#xea0e;" glyph-name="magnifying-glass1" d="M825 539.248c0-122.51-99.314-221.824-221.824-221.824s-221.824 99.314-221.824 221.824c0 122.51 99.314 221.824 221.824 221.824s221.824-99.314 221.824-221.824zM440.616 325.304l-2.752-2.752-51.672 51.672 2.752 2.752zM759.2 717.24c49.632-43.714 80.781-107.403 80.781-178.368 0-131.064-106.248-237.312-237.312-237.312-42.38 0-82.166 11.109-116.604 30.575l1.183-0.615c-5.524 3.187-12.148 5.067-19.212 5.067-10.69 0-20.375-4.306-27.415-11.278l0.003 0.003-51.672 51.672c6.966 7.044 11.27 16.734 11.27 27.43 0 7.065-1.878 13.692-5.162 19.408l0.101-0.19c-18.779 33.205-29.845 72.918-29.845 115.216 0 131.068 106.252 237.32 237.32 237.32 60.096 0 114.974-22.337 156.786-59.162l-0.261 0.226zM460.272 396.44c36.454-36.456 86.815-59.004 142.443-59.004 111.252 0 201.44 90.188 201.44 201.44s-90.188 201.44-201.44 201.44c-55.628 0-105.989-22.548-142.443-59.004v0c-36.339-36.509-58.804-86.855-58.804-142.448 0-55.589 22.462-105.932 58.804-142.448l-0.008 0.008zM207.664 240l165.888 143.272 73.448-73.448-143.12-165.968c-12.576-14.526-31.044-23.661-51.645-23.661-18.831 0-35.879 7.633-48.219 19.973v0c-12.341 12.341-19.975 29.389-19.975 48.221 0 20.583 9.119 39.036 23.538 51.539l0.085 0.072zM355.544 387.584c-2.896-2.833-4.692-6.782-4.692-11.149 0-3.412 1.096-6.569 2.956-9.136l-0.031 0.045c0.499-0.828 1.085-1.539 1.76-2.153l0.008-0.007 73.48-73.48c0.613-0.695 1.325-1.282 2.119-1.746l0.041-0.022c2.484-1.664 5.54-2.656 8.828-2.656 8.837 0 16 7.163 16 16 0 4.272-1.674 8.153-4.403 11.023l0.006-0.007-73.48 73.48c-2.872 2.855-6.83 4.62-11.201 4.62-4.466 0-8.501-1.842-11.387-4.809l-0.003-0.004zM555.48 551.76v49.84c0.348 26.075 21.567 47.078 47.692 47.078s47.344-21.004 47.692-47.045v-49.873h26.4v49.84c0 40.922-33.174 74.096-74.096 74.096s-74.096-33.174-74.096-74.096v0-49.84zM517.368 557.272h171.616c6.738 0 12.2-5.462 12.2-12.2v-118.16c0-6.738-5.462-12.2-12.2-12.2h-171.616c-6.738 0-12.2 5.462-12.2 12.2v118.16c0 6.738 5.462 12.2 12.2 12.2zM596.56 488.264l-1.36-16.6h16l-1.4 16.592c4.709 2.457 7.868 7.303 7.868 12.887 0 8.002-6.486 14.488-14.488 14.488s-14.488-6.486-14.488-14.488c0-5.584 3.159-10.431 7.788-12.849l0.080-0.038z" />
<glyph unicode="&#xea1d;" glyph-name="search" d="M821.368 531.816c0-120.765-97.899-218.664-218.664-218.664s-218.664 97.899-218.664 218.664c0 120.765 97.899 218.664 218.664 218.664s218.664-97.899 218.664-218.664zM440.616 325.304l-2.752-2.752-51.672 51.672 2.752 2.752zM759.2 717.24c49.632-43.714 80.781-107.403 80.781-178.368 0-131.064-106.248-237.312-237.312-237.312-42.38 0-82.166 11.109-116.604 30.575l1.183-0.615c-5.524 3.187-12.148 5.067-19.212 5.067-10.69 0-20.375-4.306-27.415-11.278l0.003 0.003-51.672 51.672c6.966 7.044 11.27 16.734 11.27 27.43 0 7.065-1.878 13.692-5.162 19.408l0.101-0.19c-18.779 33.205-29.845 72.918-29.845 115.216 0 131.068 106.252 237.32 237.32 237.32 60.096 0 114.974-22.337 156.786-59.162l-0.261 0.226zM460.272 396.44c36.454-36.456 86.815-59.004 142.443-59.004 111.252 0 201.44 90.188 201.44 201.44s-90.188 201.44-201.44 201.44c-55.628 0-105.989-22.548-142.443-59.004v0c-36.339-36.509-58.804-86.855-58.804-142.448 0-55.589 22.462-105.932 58.804-142.448l-0.008 0.008zM207.664 240l165.888 143.272 73.448-73.448-143.12-165.968c-12.576-14.526-31.044-23.661-51.645-23.661-18.831 0-35.879 7.633-48.219 19.973v0c-12.341 12.341-19.975 29.389-19.975 48.221 0 20.583 9.119 39.036 23.538 51.539l0.085 0.072zM355.544 387.584c-2.896-2.833-4.692-6.782-4.692-11.149 0-3.412 1.096-6.569 2.956-9.136l-0.031 0.045c0.499-0.828 1.085-1.539 1.76-2.153l0.008-0.007 73.48-73.48c0.613-0.695 1.325-1.282 2.119-1.746l0.041-0.022c2.484-1.664 5.54-2.656 8.828-2.656 8.837 0 16 7.163 16 16 0 4.272-1.674 8.153-4.403 11.023l0.006-0.007-73.48 73.48c-2.872 2.855-6.83 4.62-11.201 4.62-4.466 0-8.501-1.842-11.387-4.809l-0.003-0.004zM720 449.792v-0.248h-234.6v0.248c0 64.781 52.515 117.296 117.296 117.296 0.003 0 0.006 0 0.008 0v0c64.781 0 117.296-52.515 117.296-117.296v0zM663.296 610.288c-0.036-33.436-27.15-60.528-60.592-60.528-33.464 0-60.592 27.128-60.592 60.592s27.128 60.592 60.592 60.592v0c0.007 0 0.016 0 0.024 0 33.451 0 60.568-27.117 60.568-60.568 0-0.031 0-0.062 0-0.093v0.005z" />
<glyph unicode="&#xea24;" glyph-name="lock" d="M497.536 274.28h28.928v-67.576h-28.928zM707.872 164.392v-28.928h-391.744v28.928zM416.688 525.696v99.544c0 52.642 42.674 95.316 95.316 95.316s95.316-42.674 95.316-95.316v0-99.544h52.8v99.544c-0.617 81.317-66.68 147-148.084 147s-147.467-65.682-148.084-146.941v-99.603zM340.512 536.712h342.976c13.467 0 24.384-10.917 24.384-24.384v-236.136c0-13.467-10.917-24.384-24.384-24.384h-342.976c-13.467 0-24.384 10.917-24.384 24.384v236.136c0 13.467 10.917 24.384 24.384 24.384zM498.768 398.8l-2.768-33.2h32l-2.792 33.168c9.415 4.91 15.732 14.598 15.732 25.762 0 15.994-12.966 28.96-28.96 28.96s-28.96-12.966-28.96-28.96c0-11.164 6.317-20.853 15.572-25.686l0.16-0.076zM573.888 177.944v-55.264h-123.776v55.264h34.256v31.936h55.264v-31.936z" />
<glyph unicode="&#xea2a;" glyph-name="laptop-screen" d="M793.264 629.6v-339.312h-223.864l-9.296-36.184h-96.208l-9.296 36.184h-223.864v339.312c0.032 15.61 12.678 28.256 28.285 28.288h505.947c0.012 0 0.026 0 0.040 0 15.605 0 28.256-12.651 28.256-28.256 0-0.011 0-0.023 0-0.034v0.002zM461.16 276.624h-230.424v13.664h223.864zM793.264 290.288v-13.664h-230.424l6.56 13.664zM764.16 623.288v-303.896h-504.296v303.896c0 3.044 2.468 5.512 5.512 5.512v0h493.272c3.044 0 5.512-2.468 5.512-5.512v0zM840 281.128v-9.016c0-18.795-15.237-34.032-34.032-34.032v0h-587.936c-18.795 0-34.032 15.237-34.032 34.032v9.016c0 5.059 4.101 9.16 9.16 9.16v0h261.44l9.296-19.544h96.208l9.296 19.544h261.44c5.059 0 9.16-4.101 9.16-9.16v0zM364.848 411.896l-9.704 11.72 107.752 89.2 98.528-66.136 97.048 86.6 11.064-10.448-105.896-95.96-99.792 66.984zM697.28 530.432c0-18.38-14.9-33.28-33.28-33.28s-33.28 14.9-33.28 33.28c0 18.38 14.9 33.28 33.28 33.28s33.28-14.9 33.28-33.28zM595.808 436.776c0-18.38-14.9-33.28-33.28-33.28s-33.28 14.9-33.28 33.28c0 18.38 14.9 33.28 33.28 33.28s33.28-14.9 33.28-33.28zM393.28 417.752c0-18.38-14.9-33.28-33.28-33.28s-33.28 14.9-33.28 33.28c0 18.38 14.9 33.28 33.28 33.28s33.28-14.9 33.28-33.28zM496.648 503.336c0-18.38-14.9-33.28-33.28-33.28s-33.28 14.9-33.28 33.28c0 18.38 14.9 33.28 33.28 33.28s33.28-14.9 33.28-33.28z" />
<glyph unicode="&#xea49;" glyph-name="lock1" d="M456.504 455.648v57.952c0 30.65 24.846 55.496 55.496 55.496s55.496-24.846 55.496-55.496v0-57.952h30.728v57.952c0 47.618-38.602 86.22-86.22 86.22s-86.22-38.602-86.22-86.22v0-57.952zM412.16 462.056h199.688c7.842 0 14.2-6.358 14.2-14.2v-137.48c0-7.842-6.358-14.2-14.2-14.2h-199.688c-7.842 0-14.2 6.358-14.2 14.2v137.48c0 7.842 6.358 14.2 14.2 14.2zM504.296 381.76l-1.6-19.312h18.656l-1.6 19.312c5.484 2.858 9.164 8.501 9.164 15.003 0 9.314-7.55 16.864-16.864 16.864s-16.864-7.55-16.864-16.864c0-6.502 3.68-12.145 9.071-14.959l0.093-0.044zM512 124.8c-178.368 0.138-322.91 144.765-322.91 323.152 0 178.472 144.68 323.152 323.152 323.152s323.152-144.68 323.152-323.152c0-89.3-36.222-170.14-94.775-228.629l-0.003-0.003c-58.338-58.397-138.962-94.521-228.023-94.521-0.208 0-0.417 0-0.625 0.001h0.032zM512 739.128c-160.754-0.094-291.035-130.433-291.035-291.2 0-160.825 130.375-291.2 291.2-291.2s291.2 130.375 291.2 291.2c0 80.454-32.627 153.287-85.371 205.99l-0.002 0.002c-52.564 52.624-125.212 85.176-205.464 85.176-0.186 0-0.371 0-0.556-0.001h0.028zM801.296 665.232c0-39.765-32.235-72-72-72s-72 32.235-72 72c0 39.765 32.235 72 72 72s72-32.235 72-72zM366.824 665.232c0-39.765-32.235-72-72-72s-72 32.235-72 72c0 39.765 32.235 72 72 72s72-32.235 72-72zM801.296 229.272c0-39.765-32.235-72-72-72s-72 32.235-72 72c0 39.765 32.235 72 72 72s72-32.235 72-72zM366.824 229.272c0-39.765-32.235-72-72-72s-72 32.235-72 72c0 39.765 32.235 72 72 72s72-32.235 72-72z" />
<glyph unicode="&#xea51;" glyph-name="knight" d="M597.576 650.072h-172.776l-41.976-478.16h256.728zM388.304 192.192h247.392c34.944 0 63.272-28.328 63.272-63.272v-8.92h-373.936v8.92c0 34.944 28.328 63.272 63.272 63.272v0zM396.208 336.776h234.824c10.414 0 18.856-8.442 18.856-18.856v-0.008c0-10.414-8.442-18.856-18.856-18.856h-234.824c-10.414 0-18.856 8.442-18.856 18.856v0.008c0 10.414 8.442 18.856 18.856 18.856zM408.376 494.136h205.624c10.414 0 18.856-8.442 18.856-18.856v-0.008c0-10.414-8.442-18.856-18.856-18.856h-205.624c-10.414 0-18.856 8.442-18.856 18.856v0.008c0 10.414 8.442 18.856 18.856 18.856zM422.616 625.128c-65.096 57.184-58.616 150.872-58.616 150.872h69.352s1.416-67.12 21.904-67.528c18.864-0.376 23.12 67.528 23.12 67.528h65.624s4.256-67.896 23.12-67.528c20.52 0.408 21.936 67.528 21.936 67.528h69.344s6.448-93.688-58.648-150.872z" />
<glyph unicode="&#xea56;" glyph-name="cloud2" d="M813.312 492.744c0-0.002 0-0.005 0-0.008 0-44.472-36.043-80.526-80.51-80.544h-416.618c-58.542 0-106 47.458-106 106s47.458 106 106 106v0c1.088 0 2.232 0 3.32-0.056-2.12 6.517-3.343 14.015-3.343 21.799 0 40.175 32.569 72.744 72.744 72.744 15.98 0 30.757-5.153 42.76-13.888l-0.209 0.145c8.314 40.829 43.928 71.12 86.616 71.12 44.284 0 80.954-32.598 87.324-75.106l0.060-0.485c16.271 11.443 36.496 18.288 58.32 18.288 56.408 0 102.136-45.728 102.136-102.136 0-16.938-4.123-32.913-11.42-46.976l0.268 0.568c21.85-6.329 39.49-21.073 49.517-40.401l0.211-0.447c5.561-10.582 8.824-23.122 8.824-36.423 0-0.068 0-0.135 0-0.203v0.010zM571.68 196.032l-59.928-76.032-59.928 76.032h34.696v181.184h50.536v-181.184zM737.768 189.224v34.688h-114.832v153.304h50.536v-102.768h64.296v34.624l76.032-59.928zM294.672 189.224v34.688h114.832v153.304h-50.536v-102.768h-64.296v34.624l-76.032-59.928z" />
<glyph unicode="&#xea57;" glyph-name="light-bulb" d="M441.152 221.672v-86.472c0-8.395 6.805-15.2 15.2-15.2v0h111.272c8.395 0 15.2 6.805 15.2 15.2v0 86.472zM523.264 714.208c-3.38 0.186-7.336 0.292-11.317 0.292-121.326 0-219.68-98.354-219.68-219.68 0-62.073 25.745-118.134 67.14-158.085l0.065-0.062c30.783-29.103 53.489-66.445 64.599-108.498l0.361-1.606c1.402-5.89 6.586-10.215 12.792-10.288h149.68c6.214 0.073 11.398 4.398 12.782 10.198l0.018 0.090c11.521 43.7 34.251 81.078 64.941 110.132l0.107 0.1c41.343 39.911 67.015 95.821 67.015 157.727 0 4.363-0.127 8.696-0.379 12.995l0.028-0.594c-7.138 111.789-96.272 200.621-207.543 207.251l-0.609 0.029zM592.872 187.648c-0.009-4.936-4.008-8.935-8.943-8.944h-143.705l142.488 17.728h1.216c0.005 0 0.011 0 0.017 0 4.88 0 8.846-3.916 8.927-8.776v-0.008zM582.712 196.44l-142.488-17.736c-4.895 0-8.864 3.969-8.864 8.864s3.969 8.864 8.864 8.864v0zM592.472 155.64c-0.009-4.936-4.008-8.935-8.943-8.944h-142.905l141.696 17.736h1.216c0.003 0 0.006 0 0.009 0 4.883 0 8.85-3.92 8.927-8.785v-0.007zM582.32 164.432l-141.696-17.728c-4.895 0-8.864 3.969-8.864 8.864s3.969 8.864 8.864 8.864v0zM512 776h0.008c3.588 0 6.496-2.908 6.496-6.496v-32.696c0-3.588-2.908-6.496-6.496-6.496h-0.008c-3.588 0-6.496 2.908-6.496 6.496v32.696c0 3.588 2.908 6.496 6.496 6.496zM230.744 494.744v0.008c0 3.588 2.908 6.496 6.496 6.496h32.696c3.588 0 6.496-2.908 6.496-6.496v-0.008c0-3.588-2.908-6.496-6.496-6.496h-32.696c-3.588 0-6.496 2.908-6.496 6.496zM747.56 494.744v0.008c0 3.588 2.908 6.496 6.496 6.496h32.696c3.588 0 6.496-2.908 6.496-6.496v-0.008c0-3.588-2.908-6.496-6.496-6.496h-32.696c-3.588 0-6.496 2.908-6.496 6.496zM710.832 693.73l0.006-0.006c2.536-2.536 2.536-6.649 0-9.185l-23.116-23.116c-2.536-2.536-6.649-2.536-9.185 0l-0.006 0.006c-2.536 2.536-2.536 6.649 0 9.185l23.116 23.116c2.536 2.536 6.649 2.536 9.185 0zM313.059 693.612l0.006 0.006c2.536 2.536 6.649 2.536 9.185 0l23.116-23.116c2.536-2.536 2.536-6.649 0-9.185l-0.006-0.006c-2.536-2.536-6.649-2.536-9.185 0l-23.116 23.116c-2.536 2.536-2.536 6.649 0 9.185zM622.875 753.339l0.007-0.003c3.297-1.414 4.824-5.232 3.41-8.529l-12.882-30.048c-1.414-3.297-5.232-4.824-8.529-3.41l-0.007 0.003c-3.297 1.414-4.824 5.232-3.41 8.529l12.882 30.048c1.414 3.297 5.232 4.824 8.529 3.41zM253.461 605.651l0.003 0.007c1.414 3.297 5.232 4.824 8.529 3.41l30.048-12.882c3.297-1.414 4.824-5.232 3.41-8.529l-0.003-0.007c-1.414-3.297-5.232-4.824-8.529-3.41l-30.048 12.882c-3.297 1.414-4.824 5.232-3.41 8.529zM728.346 401.948l0.003 0.007c1.414 3.297 5.232 4.824 8.529 3.41l30.048-12.882c3.297-1.414 4.824-5.232 3.41-8.529l-0.003-0.007c-1.414-3.297-5.232-4.824-8.529-3.41l-30.048 12.882c-3.297 1.414-4.824 5.232-3.41 8.529zM772.904 598.86l0.003-0.007c1.331-3.333-0.292-7.114-3.625-8.445l-30.375-12.13c-3.333-1.331-7.114 0.292-8.445 3.625l-0.003 0.007c-1.331 3.333 0.292 7.114 3.625 8.445l30.375 12.13c3.333 1.331 7.114-0.292 8.445-3.625zM292.998 407.282l0.003-0.007c1.331-3.333-0.292-7.114-3.625-8.445l-30.375-12.13c-3.333-1.331-7.114 0.292-8.445 3.625l-0.003 0.007c-1.331 3.333 0.292 7.114 3.625 8.445l30.375 12.13c3.333 1.331 7.114-0.292 8.445-3.625zM407.761 755.767l0.007 0.003c3.333 1.331 7.114-0.292 8.445-3.625l12.13-30.375c1.331-3.333-0.292-7.114-3.625-8.445l-0.007-0.003c-3.333-1.331-7.114 0.292-8.445 3.625l-12.13 30.375c-1.331 3.333 0.292 7.114 3.625 8.445zM359.96 477.288v45.32l41.136 8.448c2.782 9.673 6.357 18.082 10.803 25.933l-0.307-0.589-23.128 34.992 32.088 32.088 34.992-23.128c7.262 4.139 15.671 7.714 24.507 10.287l0.837 0.209 8.456 41.152h45.32l8.448-41.136c9.641-2.78 18.023-6.355 25.846-10.8l-0.582 0.304 35.080 23.128 32.088-32.088-23.136-35.008c4.155-7.272 7.702-15.688 10.206-24.541l0.194-0.803 41.224-8.448v-45.32l-41.208-8.488c-2.697-9.626-6.244-18.014-10.693-25.822l0.293 0.558 23.128-35.080-32.088-32.088-35.080 23.128c-7.25-4.156-15.638-7.703-24.466-10.206l-0.798-0.194-8.448-41.224h-45.328l-8.448 41.224c-9.656 2.698-18.072 6.245-25.908 10.695l0.564-0.295-34.992-23.128-32.088 32.088 23.128 35.080c-4.144 7.241-7.721 15.623-10.296 24.432l-0.208 0.832zM511.96 439.872c0.009 0 0.021 0 0.032 0 33.177 0 60.072 26.895 60.072 60.072s-26.895 60.072-60.072 60.072c-33.157 0-60.040-26.863-60.072-60.013v-0.003c0.005-33.189 26.895-60.096 60.077-60.128h0.003z" />
<glyph unicode="&#xea7e;" glyph-name="location-pin" d="M820.784 399.328c0-172.684-139.988-312.672-312.672-312.672s-312.672 139.988-312.672 312.672c0 172.684 139.988 312.672 312.672 312.672s312.672-139.988 312.672-312.672zM508 71.536c-0.308-0.001-0.673-0.002-1.038-0.002-90.131 0-171.701 36.65-230.621 95.86l-0.013 0.013-4.48 4.952c-56.825 58.578-91.856 138.578-91.856 226.76s35.031 168.181 91.935 226.842l-0.079-0.082v0.088l4.48 4.864c59.202 59.478 141.137 96.284 231.668 96.284s172.466-36.807 231.656-96.272l0.012-0.012 4.48-4.952c56.825-58.578 91.856-138.578 91.856-226.76s-35.031-168.181-91.935-226.842l0.079 0.082v-0.088l-4.48-4.864c-58.933-59.223-140.504-95.874-230.634-95.874-0.362 0-0.724 0.001-1.086 0.002h0.056zM302.272 184.56c53.337-51.124 125.858-82.601 205.731-82.601 80.198 0 152.984 31.733 206.487 83.327l-0.090-0.086 3.792 4.136c53.971 53.562 87.38 127.775 87.38 209.792s-33.41 156.23-87.362 209.774l-0.018 0.018-4.48 4.8c-53.232 51.367-125.789 83.015-205.737 83.015-80.272 0-153.092-31.905-206.472-83.725l0.073 0.070-3.792-4.136c-53.971-53.562-87.38-127.775-87.38-209.792s33.41-156.23 87.362-209.774l0.018-0.018zM508 513.040c-0.308-0.001-0.673-0.002-1.038-0.002-90.131 0-171.701 36.65-230.621 95.86l-0.013 0.013-4.48 4.456v12.608l4.48 4.864c59.202 59.478 141.137 96.284 231.668 96.284s172.466-36.807 231.656-96.272l0.012-0.012 4.48-4.456v-13.016l-4.48-4.456c-58.933-59.223-140.504-95.874-230.634-95.874-0.362 0-0.724 0.001-1.086 0.002h0.056zM308.896 619.872c52.504-47.408 122.417-76.414 199.104-76.414s146.6 29.006 199.365 76.646l-0.261-0.232c-52.402 47.651-122.346 76.828-199.104 76.828s-146.702-29.177-199.345-77.044l0.241 0.216zM508 71.536c-0.308-0.001-0.673-0.002-1.038-0.002-90.131 0-171.701 36.65-230.621 95.86l-0.013 0.013-4.48 4.456v12.56l4.432 4.864c59.207 59.507 141.161 96.333 231.716 96.333s172.509-36.826 231.703-96.319l4.445-4.469v-12.976l-4.48-4.456c-58.932-59.219-140.5-95.866-230.626-95.866-0.365 0-0.73 0.001-1.094 0.002h0.057zM308.856 178.4c52.51-47.431 122.44-76.453 199.148-76.453s146.638 29.022 199.408 76.685l-0.26-0.231c-52.43 47.625-122.384 76.781-199.148 76.781s-146.718-29.157-199.392-77l0.244 0.219zM508 71.44c-96.152 0-171.512 144-171.512 327.792s75.36 327.776 171.512 327.776 171.512-144 171.512-327.768-75.36-327.8-171.512-327.8zM508 696.584c-76.504 0-141.096-136.16-141.096-297.352s64.584-297.376 141.096-297.376 141.096 136.192 141.096 297.344-64.592 297.392-141.096 297.392zM195.44 414.536h625.352v-30.424h-625.352zM492.88 712.008h30.424v-625.352h-30.424zM737.536 824.56c-0.002 0-0.005 0-0.008 0-58.794 0-106.456-47.662-106.456-106.456 0-0.003 0-0.006 0-0.008v0c0-128.944 106.464-226.032 106.464-226.032s106.464 93.368 106.464 226.032c0 0.002 0 0.005 0 0.008 0 58.794-47.662 106.456-106.456 106.456-0.003 0-0.006 0-0.008 0v0zM737.536 650.744c-0.014 0-0.031 0-0.048 0-36.866 0-66.752 29.886-66.752 66.752s29.886 66.752 66.752 66.752c36.852 0 66.729-29.863 66.752-66.71v-0.002c-0.005-36.857-29.854-66.741-66.698-66.8h-0.006zM804.24 717.536c0-0.014 0-0.031 0-0.048 0-36.866-29.886-66.752-66.752-66.752s-66.752 29.886-66.752 66.752c0 36.866 29.886 66.752 66.752 66.752 0.017 0 0.034 0 0.051 0h-0.003c36.834-0.014 66.69-29.87 66.704-66.703v-0.001z" />
<glyph unicode="&#xea81;" glyph-name="terminal" d="M0 896v-896h1024v896h-1024zM960 64h-896v768h896v-768zM896 768h-768v-640h768v640zM448 448h-64v-64h-64v-64h-64v64h64v64h64v64h-64v64h-64v64h64v-64h64v-64h64v-64zM704 320h-192v64h192v-64z" />
<glyph unicode="&#xea83;" glyph-name="mail" d="M853.31 960h-682.62c-93.88 0-170.69-76.784-170.69-170.658v-682.656c0-93.876 76.81-170.686 170.69-170.686h682.622c93.938 0 170.688 76.81 170.688 170.686v682.656c0 93.874-76.75 170.658-170.69 170.658zM256 704h512c9.138 0 18.004-1.962 26.144-5.662l-282.144-329.168-282.144 329.17c8.14 3.696 17.006 5.66 26.144 5.66zM192 256v384c0 1.34 0.056 2.672 0.14 4l187.664-218.94-185.598-185.6c-1.444 5.338-2.206 10.886-2.206 16.54zM768 192h-512c-5.654 0-11.202 0.762-16.54 2.206l182.118 182.118 90.422-105.496 90.424 105.494 182.116-182.118c-5.34-1.442-10.886-2.204-16.54-2.204zM832 256c0-5.654-0.762-11.2-2.206-16.54l-185.598 185.598 187.664 218.942c0.084-1.328 0.14-2.66 0.14-4v-384z" />
<glyph unicode="&#xea84;" glyph-name="mail2" d="M853.342 960h-682.656c-93.874 0-170.686-76.81-170.686-170.69v-682.622c0-93.938 76.812-170.688 170.686-170.688h682.656c93.876 0 170.658 76.75 170.658 170.69v682.62c0 93.88-76.782 170.69-170.658 170.69zM853.342 832c7.988 0 15.546-2.334 22.020-6.342l-363.362-300.404-363.354 300.4c6.478 4.010 14.044 6.346 22.040 6.346h682.656zM170.686 64c-1.924 0-3.82 0.146-5.684 0.408l225.626 312.966-29.256 29.254-233.372-233.37v611.138l384-464.396 384 464.394v-611.136l-233.372 233.37-29.254-29.254 225.628-312.968c-1.858-0.26-3.746-0.406-5.662-0.406h-682.654z" />
<glyph unicode="&#xea87;" glyph-name="globe" d="M702.8 448.024c0-105.336-85.392-190.728-190.728-190.728s-190.728 85.392-190.728 190.728c0 105.336 85.392 190.728 190.728 190.728s190.728-85.392 190.728-190.728zM512 248.080c-0.187-0.001-0.408-0.001-0.629-0.001-54.978 0-104.735 22.356-140.675 58.473l-0.008 0.008-2.728 3.024c-34.661 35.732-56.029 84.531-56.029 138.32s21.367 102.588 56.077 138.37l-0.049-0.050v0.056l2.728 2.968c36.113 36.281 86.093 58.733 141.316 58.733s105.203-22.452 141.308-58.725l0.008-0.008 2.728-3.024c34.661-35.732 56.029-84.531 56.029-138.32s-21.367-102.588-56.077-138.37l0.049 0.050v-0.056l-2.728-2.968c-35.948-36.125-85.705-58.481-140.683-58.481-0.224 0-0.448 0-0.671 0.001h0.035zM386.512 317.024c32.535-31.187 76.773-50.389 125.496-50.389 48.922 0 93.322 19.358 125.959 50.833l-0.055-0.052 2.312 2.52c32.92 32.672 53.299 77.94 53.299 127.968s-20.379 95.296-53.288 127.957l-0.011 0.011-2.728 2.912c-32.468 31.34-76.728 50.65-125.497 50.65-48.968 0-93.389-19.467-125.947-51.085l0.044 0.043-2.312-2.52c-32.92-32.672-53.299-77.94-53.299-127.968s20.379-95.296 53.288-127.957l0.011-0.011zM512 517.392c-0.187-0.001-0.408-0.001-0.629-0.001-54.978 0-104.735 22.356-140.675 58.473l-0.008 0.008-2.728 2.72v7.688l2.728 2.968c36.113 36.281 86.093 58.733 141.316 58.733s105.203-22.452 141.308-58.725l0.008-0.008 2.728-2.72v-7.944l-2.728-2.72c-35.948-36.12-85.701-58.473-140.675-58.473-0.227 0-0.453 0-0.68 0.001h0.035zM390.552 582.56c32.026-28.917 74.671-46.61 121.448-46.61s89.422 17.693 121.607 46.752l-0.159-0.142c-31.964 29.066-74.628 46.863-121.448 46.863s-89.484-17.797-121.595-46.995l0.147 0.132zM512 248.080c-0.187-0.001-0.408-0.001-0.629-0.001-54.978 0-104.735 22.356-140.675 58.473l-0.008 0.008-2.728 2.72v7.664l2.704 2.968c36.116 36.298 86.107 58.761 141.344 58.761s105.228-22.463 141.336-58.753l2.712-2.728v-7.912l-2.728-2.72c-35.948-36.125-85.705-58.481-140.683-58.481-0.227 0-0.453 0-0.68 0.001h0.035zM390.52 313.28c32.029-28.934 74.685-46.638 121.476-46.638s89.447 17.704 121.635 46.779l-0.159-0.141c-31.981 29.050-74.651 46.836-121.476 46.836s-89.495-17.785-121.625-46.969l0.149 0.134zM512 248c-58.648 0-104.624 87.856-104.624 200s45.976 199.912 104.624 199.912 104.624-87.824 104.624-199.912-45.976-200-104.624-200zM512 629.328c-46.672 0-86.064-83.056-86.064-181.384s39.392-181.368 86.064-181.368 86.064 83.072 86.064 181.424-39.392 181.352-86.064 181.352zM321.344 457.304h381.456v-18.552h-381.456zM502.776 638.76h18.552v-381.456h-18.552zM560.12 158.56l-48.192-58.56-48.184 58.56h25.48v57.728h45.408v-57.728zM698.392 221.4l-12.456-74.808-71.008 26.616 22.072 12.744-28.864 49.992 39.32 22.704 28.864-49.992zM786.72 344.952l26.624-71.016-74.808-12.448 12.744 22.072-50 28.864 22.704 39.32 50-28.864zM801.44 496.12l58.56-48.192-58.56-48.184v25.48h-57.728v45.408h57.728zM738.6 634.392l74.808-12.456-26.616-71.008-12.744 22.072-49.992-28.864-22.704 39.32 49.992 28.864zM615.048 722.72l71.016 26.624 12.448-74.808-22.072 12.744-28.864-50-39.32 22.704 28.864 50zM463.88 737.44l48.192 58.56 48.184-58.56h-25.48v-57.728h-45.408v57.728zM325.608 674.6l12.456 74.808 71.008-26.616-22.072-12.744 28.864-49.992-39.32-22.704-28.864 49.992zM237.28 551.048l-26.624 71.016 74.808 12.448-12.744-22.072 50-28.864-22.704-39.32-50 28.864zM222.56 399.88l-58.56 48.192 58.56 48.184v-25.48h57.728v-45.408h-57.728zM285.4 261.608l-74.808 12.456 26.616 71.008 12.744-22.072 49.992 28.864 22.704-39.32-49.992-28.864zM408.952 173.28l-71.016-26.624-12.448 74.808 22.072-12.744 28.864 50 39.32-22.704-28.864-50z" />
<glyph unicode="&#xea9a;" glyph-name="bar-chart" d="M773.304 136h-148.816v469.568h148.816zM566.712 136h-148.816v327.896h148.816zM367.52 136h-148.816v202.216h148.816zM674.072 649.856l-29.088 48.56-399.344-239.256-26.944 44.968 399.344 239.256-29.128 48.616 137.416-14.336z" />
<glyph unicode="&#xeab5;" glyph-name="setting" d="M730.4 565.6c0-211.672-218.4-453.6-218.4-453.6s-218.4 245.928-218.4 453.6c0 120.619 97.781 218.4 218.4 218.4s218.4-97.781 218.4-218.4v0zM673.888 565.6c0-89.408-72.48-161.888-161.888-161.888s-161.888 72.48-161.888 161.888c0 89.408 72.48 161.888 161.888 161.888s161.888-72.48 161.888-161.888zM387.912 547.104v36.992l33.6 6.896c2.27 7.896 5.189 14.76 8.818 21.168l-0.25-0.48-18.88 28.552 26.168 26.168 28.56-18.872c5.928 3.379 12.793 6.298 20.005 8.398l0.683 0.17 6.896 33.6h36.984l6.896-33.6c7.868-2.27 14.707-5.188 21.091-8.816l-0.475 0.248 28.624 18.872 26.168-26.168-18.872-28.56c3.394-5.936 6.292-12.805 8.337-20.033l0.159-0.655 33.64-6.896v-36.984l-33.64-6.896c-2.204-7.855-5.102-14.7-8.735-21.071l0.239 0.455 18.872-28.624-26.168-26.168-28.624 18.872c-5.916-3.395-12.761-6.292-19.964-8.338l-0.652-0.158-6.896-33.64h-36.992l-6.896 33.64c-7.882 2.204-14.752 5.102-21.148 8.737l0.46-0.241-28.552-18.872-26.168 26.168 18.872 28.624c-3.38 5.909-6.298 12.748-8.398 19.937l-0.17 0.679zM512 516.568c27.080 0 49.032 21.952 49.032 49.032s-21.952 49.032-49.032 49.032c-27.080 0-49.032-21.952-49.032-49.032v0c0.023-27.070 21.962-49.009 49.030-49.032h0.002z" />
<glyph unicode="&#xeab8;" glyph-name="settings2" d="M176 397.928v100.144l90.904 18.672c6.149 21.373 14.051 39.953 23.877 57.3l-0.677-1.3-51.112 77.328 70.912 70.912 77.296-51.088c16.047 9.149 34.627 17.051 54.151 22.739l1.849 0.461 18.728 90.904h100.144l18.672-90.904c21.304-6.146 39.825-14.047 57.109-23.872l-1.285 0.672 77.52 51.112 70.912-70.912-51.104-77.296c9.189-16.068 17.037-34.663 22.578-54.225l0.43-1.775 91.096-18.728v-100.144l-91.096-18.672c-5.969-21.269-13.816-39.804-23.655-57.055l0.647 1.231 51.112-77.52-70.912-70.912-77.52 51.112c-16.020-9.193-34.555-17.039-54.060-22.58l-1.764-0.428-18.68-91.104h-100.144l-18.672 91.096c-21.337 5.971-39.932 13.818-57.245 23.659l1.245-0.651-77.328-51.112-70.912 70.912 51.112 77.52c-9.152 15.999-17.053 34.52-22.74 53.986l-0.46 1.838zM511.904 273.392c0.026 0 0.057 0 0.088 0 96.433 0 174.608 78.175 174.608 174.608s-78.175 174.608-174.608 174.608c-96.402 0-174.558-78.124-174.608-174.515v-0.005c0.045-96.402 78.132-174.55 174.506-174.696h0.014zM682.784 448.024c0-94.286-76.434-170.72-170.72-170.72s-170.72 76.434-170.72 170.72c0 94.286 76.434 170.72 170.72 170.72s170.72-76.434 170.72-170.72zM512 269.048c-0.172-0.001-0.376-0.001-0.58-0.001-49.205 0-93.737 20.010-125.901 52.337l-0.007 0.007-2.448 2.704c-31.026 31.983-50.152 75.662-50.152 123.808s19.126 91.825 50.195 123.853l-0.044-0.045v0.048l2.448 2.656c32.324 32.476 77.061 52.574 126.492 52.574s94.168-20.097 126.485-52.567l0.007-0.007 2.448-2.704c31.026-31.983 50.152-75.662 50.152-123.808s-19.126-91.825-50.195-123.853l0.044 0.045v-0.048l-2.448-2.656c-32.171-32.334-76.703-52.345-125.908-52.345-0.207 0-0.413 0-0.619 0.001h0.032zM399.672 330.76c29.118-27.922 68.716-45.114 112.329-45.114 43.792 0 83.535 17.333 112.744 45.513l-0.049-0.047 2.072 2.256c29.467 29.244 47.708 69.764 47.708 114.544s-18.241 85.3-47.698 114.534l-0.010 0.010-2.448 2.608c-29.064 28.046-68.679 45.326-112.33 45.326-43.829 0-83.589-17.421-112.734-45.716l0.040 0.038-2.072-2.256c-29.467-29.244-47.708-69.764-47.708-114.544s18.241-85.3 47.698-114.534l0.010-0.010zM512 510.112c-0.172-0.001-0.376-0.001-0.58-0.001-49.205 0-93.737 20.010-125.901 52.337l-0.007 0.007-2.448 2.4v6.88l2.448 2.656c32.324 32.476 77.061 52.574 126.492 52.574s94.168-20.097 126.485-52.567l0.007-0.007 2.448-2.4v-7.104l-2.448-2.4c-32.175-32.354-76.719-52.377-125.94-52.377-0.195 0-0.391 0-0.586 0.001h0.030zM403.288 568.44c28.666-25.885 66.837-41.723 108.708-41.723s80.042 15.838 108.851 41.85l-0.143-0.127c-28.611 26.016-66.799 41.945-108.708 41.945s-80.097-15.929-108.84-42.064l0.132 0.118zM512 269.048c-0.172-0.001-0.376-0.001-0.58-0.001-49.205 0-93.737 20.010-125.901 52.337l-0.007 0.007-2.448 2.4v6.856l2.4 2.656c32.327 32.491 77.073 52.598 126.516 52.598s94.189-20.107 126.508-52.59l2.408-2.408v-7.080l-2.448-2.4c-32.175-32.353-76.719-52.377-125.94-52.377-0.179 0-0.357 0-0.536 0.001h0.028zM403.264 327.408c28.669-25.902 66.852-41.751 108.736-41.751s80.067 15.849 108.878 41.877l-0.142-0.126c-28.627 26.003-66.822 41.923-108.736 41.923s-80.109-15.92-108.87-42.043l0.134 0.119zM512 269c-52.496 0-93.648 78.624-93.648 178.976s41.152 178.96 93.648 178.96 93.648-78.608 93.648-178.936-41.152-179-93.648-179zM512 610.328c-41.776 0-77.040-74.328-77.040-162.328s35.264-162.4 77.040-162.4 77.040 74.4 77.040 162.4-35.264 162.328-77.040 162.328zM341.344 456.328h341.44v-16.608h-341.44zM503.744 618.744h16.608v-341.44h-16.608z" />
<glyph unicode="&#xeac0;" glyph-name="coin" d="M773.824 189.816h-34.912v119.264h-453.824v-119.264h-34.912v136.72c0 0.002 0 0.005 0 0.008 0 9.641 7.815 17.456 17.456 17.456h488.736c9.641 0 17.456-7.815 17.456-17.456v0zM494.544 422.536h34.912v-241.448h-34.912zM337.448 189.776c-0.027-38.538-31.275-69.768-69.816-69.768-38.558 0-69.816 31.258-69.816 69.816s31.258 69.816 69.816 69.816c0.014 0 0.028 0 0.042 0h-0.002c0.007 0 0.016 0 0.024 0 38.523 0 69.752-31.229 69.752-69.752 0-0.039 0-0.079 0-0.118v0.006zM581.816 189.776c-0.027-38.538-31.275-69.768-69.816-69.768-38.558 0-69.816 31.258-69.816 69.816s31.258 69.816 69.816 69.816c0.014 0 0.028 0 0.042 0h-0.002c0.007 0 0.016 0 0.024 0 38.523 0 69.752-31.229 69.752-69.752 0-0.039 0-0.079 0-0.118v0.006zM826.192 189.776c-0.027-38.538-31.275-69.768-69.816-69.768-38.558 0-69.816 31.258-69.816 69.816s31.258 69.816 69.816 69.816c0.014 0 0.028 0 0.042 0h-0.002c0.007 0 0.016 0 0.024 0 38.523 0 69.752-31.229 69.752-69.752 0-0.039 0-0.079 0-0.118v0.006zM701.864 586.176c0-104.837-84.987-189.824-189.824-189.824s-189.824 84.987-189.824 189.824c0 104.837 84.987 189.824 189.824 189.824v0c104.828-0.023 189.801-84.996 189.824-189.822v-0.002zM512.040 431.264c-85.556 0-154.912 69.356-154.912 154.912s69.356 154.912 154.912 154.912c85.556 0 154.912-69.356 154.912-154.912v0c-0.1-85.515-69.397-154.812-154.902-154.912h-0.010zM518.976 598.32q29.384-6.040 39.928-17.6c6.599-7.765 10.612-17.906 10.612-28.984 0-0.869-0.025-1.733-0.073-2.59l0.005 0.119c0.004-0.24 0.006-0.524 0.006-0.808 0-13.562-5.082-25.937-13.445-35.325l0.046 0.053c-9.197-10.144-22.385-16.525-37.066-16.648h-0.022v-18.4h-12.672v18.168q-48.344 5.328-51.664 52h22.968q2.608-29.6 28.672-34.008v66.256q-48 9.6-48 46.8c-0.027 0.582-0.042 1.265-0.042 1.951 0 12.402 4.982 23.64 13.055 31.822l-0.005-0.005c9.202 8.617 21.407 14.127 34.885 14.803l0.131 0.005v18.256h12.68v-18.248q42.184-3.2 46.328-43.008h-23.104c0.001 0.075 0.001 0.163 0.001 0.252 0 13.134-10.21 23.884-23.126 24.744l-0.075 0.004zM506.296 600.928v57.232c-14.052-0.939-25.095-12.568-25.095-26.776 0-0.794 0.035-1.58 0.102-2.357l-0.007 0.101c-0.063-0.659-0.099-1.424-0.099-2.198 0-6.672 2.683-12.718 7.030-17.116l-0.002 0.002c5.024-4.184 11.106-7.278 17.779-8.831l0.293-0.057zM518.976 514.312q27.368 3.44 27.368 33.536c0.038 0.551 0.059 1.194 0.059 1.842 0 6.448-2.125 12.4-5.713 17.193l0.054-0.075c-5.85 5.493-13.281 9.365-21.539 10.865l-0.261 0.039z" />
<glyph unicode="&#xeac8;" glyph-name="coding" d="M456.672 479.456l-46.92-27.536 46.92-27.544v-30.104l-82.944 46.192v22.904l82.944 46.192zM546.816 527.12l-41.144-158.24h-27.328l41.136 158.24zM650.272 463.368v-22.904l-82.944-46.192v30.104l46.92 27.544-46.92 27.536v30.104zM176 397.928v100.144l90.904 18.672c6.149 21.373 14.051 39.953 23.877 57.3l-0.677-1.3-51.112 77.328 70.912 70.912 77.296-51.088c16.047 9.149 34.627 17.051 54.151 22.739l1.849 0.461 18.728 90.904h100.144l18.672-90.904c21.304-6.146 39.825-14.047 57.109-23.872l-1.285 0.672 77.52 51.112 70.912-70.912-51.104-77.296c9.189-16.068 17.037-34.663 22.578-54.225l0.43-1.775 91.096-18.728v-100.144l-91.096-18.672c-5.969-21.269-13.816-39.804-23.655-57.055l0.647 1.231 51.112-77.52-70.912-70.912-77.52 51.112c-16.020-9.193-34.555-17.039-54.060-22.58l-1.764-0.428-18.68-91.104h-100.144l-18.672 91.096c-21.337 5.971-39.932 13.818-57.245 23.659l1.245-0.651-77.328-51.112-70.912 70.912 51.112 77.52c-9.152 15.999-17.053 34.52-22.74 53.986l-0.46 1.838zM511.904 273.392c0.026 0 0.057 0 0.088 0 96.433 0 174.608 78.175 174.608 174.608s-78.175 174.608-174.608 174.608c-96.402 0-174.558-78.124-174.608-174.515v-0.005c0.045-96.402 78.132-174.55 174.506-174.696h0.014z" />
</font>
</defs>
</svg>
